<svg width="120" height="32" viewBox="0 0 120 32" fill="none" xmlns="http://www.w3.org/2000/svg">
<path fill-rule="evenodd" clip-rule="evenodd" d="M110.881 19.0903L109.991 1.2395C109.991 1.2395 109.758 -0.010368 110.9 6.49532e-05L118.97 0.0751823C118.97 0.0751823 120.089 0.0251042 119.994 1.43355C119.899 2.842 119.495 8.71784 119.495 8.71784C119.495 8.71784 118.902 16.3548 110.879 19.0882L110.881 19.0903ZM119.017 16.4048C119.017 16.4048 116.359 20.4507 110.998 21.7298L111.131 24.9745C111.131 24.9745 111.252 26.0449 112.369 26.0678L117.379 26.1137C117.379 26.1137 118.467 26.193 118.534 24.8764C118.602 23.5597 119.015 16.4027 119.015 16.4027L119.017 16.4048Z" fill="#FF5925"/>
<path d="M16.0992 5.44815H0V8.65106H6.27339V26.1158H9.85335V8.65106H16.0992V5.44815Z" fill="#1A1A1A"/>
<path d="M23.5384 12.0459C22.4827 11.4158 21.2068 11.1153 19.7638 11.1153C18.3208 11.1153 17.0154 11.4429 15.9046 12.0459C14.7938 12.6761 13.9051 13.5233 13.2958 14.6458C12.6568 15.7684 12.3796 17.083 12.3796 18.6145V18.9713C12.3796 20.4779 12.7118 21.8174 13.3233 22.94C13.9623 24.0626 14.8213 24.9661 15.9596 25.567C17.0979 26.1701 18.4012 26.4977 19.8464 26.4977C21.1793 26.4977 22.288 26.2786 23.1766 25.8675C24.0653 25.4293 24.7593 24.9369 25.2861 24.3339C25.8129 23.7308 26.2023 23.157 26.4794 22.6375L23.621 21.1873C23.3438 21.8174 22.927 22.3641 22.4001 22.8294C21.8733 23.2948 21.0397 23.5681 19.9289 23.5681C18.8181 23.5681 17.8469 23.2113 17.0429 22.5269C16.2664 21.8425 15.8496 20.9119 15.8221 19.7893H26.9259V18.5853C26.9259 17.108 26.6212 15.7663 26.0097 14.6438C25.4829 13.5212 24.6493 12.6719 23.5384 12.0439V12.0459ZM15.9046 17.2186C16.0717 16.2609 16.4886 15.4659 17.1254 14.9192C17.7623 14.3725 18.653 14.0699 19.7617 14.0699C20.8704 14.0699 21.6765 14.3433 22.3705 14.9192C23.037 15.4951 23.4263 16.2609 23.4813 17.2186H15.9025H15.9046ZM47.3266 11.854C46.5557 11.4557 45.698 11.2487 44.8278 11.251C43.6345 11.251 42.7458 11.47 42.1068 11.8811C41.4679 12.3193 40.9685 12.866 40.6364 13.5233H40.137C39.7752 12.866 39.3034 12.3193 38.6665 11.8811C38.0297 11.4429 37.1389 11.251 36.0577 11.251C34.9765 11.251 34.2254 11.4429 33.6161 11.8269C33.0067 12.2108 32.5603 12.649 32.3106 13.1414H31.8113V11.5264H28.4239V26.1158H31.8663V17.4648C31.8663 16.3965 32.116 15.5493 32.6428 14.9734C33.1421 14.3975 33.8636 14.0971 34.8073 14.0971C35.6113 14.0971 36.2778 14.3162 36.7221 14.7543C37.1939 15.1925 37.4161 15.8498 37.4161 16.697V26.1137H40.8035V17.4627C40.8035 16.3944 41.0532 15.5472 41.58 14.9713C42.1068 14.3954 42.8283 14.095 43.717 14.095C44.521 14.095 45.1875 14.3141 45.6318 14.7523C46.1036 15.1904 46.3258 15.8477 46.3258 16.6949V26.1116H49.7682V16.4487C49.7682 15.2989 49.5461 14.3412 49.1017 13.6025C48.6849 12.8096 48.0756 12.2609 47.3245 11.8498L47.3266 11.854ZM63.4258 11.9625C62.3996 11.3866 61.2888 11.0861 60.0955 11.0861C58.7075 11.0861 57.6242 11.3052 56.8752 11.7976C56.1262 12.2901 55.5698 12.8096 55.2376 13.4127H54.7383V11.4972H51.3508V32H54.7933V24.2796H55.2926C55.5148 24.6364 55.8194 24.9911 56.2088 25.3208C56.5981 25.6776 57.1249 25.951 57.7364 26.1701C58.3754 26.3892 59.1519 26.4977 60.068 26.4977C61.2613 26.4977 62.3996 26.1972 63.4258 25.6213C64.452 25.0454 65.2581 24.1711 65.8971 23.0485C66.5361 21.9259 66.8132 20.5843 66.8132 18.9964V18.5039C66.8132 16.916 66.5086 15.5744 65.8971 14.4518C65.2856 13.4106 64.4541 12.5634 63.4258 11.9604V11.9625ZM63.3983 18.9713C63.3983 20.4486 63.009 21.5712 62.205 22.3933C61.401 23.2155 60.3727 23.5702 59.0969 23.5702C57.821 23.5702 56.8202 23.1862 55.9887 22.3933C55.1551 21.6004 54.7404 20.4507 54.7404 18.9713V18.6709C54.7404 17.1936 55.1572 16.0439 55.9887 15.2489C56.8223 14.4831 57.8485 14.072 59.0969 14.072C60.3452 14.072 61.3735 14.456 62.1775 15.2489C62.9815 16.0418 63.3983 17.1644 63.3983 18.6709V18.9713ZM68.4234 5.44815H71.8658V26.1158H68.4234V5.44815ZM104.923 13.6046C104.479 12.8389 103.868 12.263 103.146 11.8519C102.375 11.4536 101.517 11.2467 100.647 11.2489C99.4539 11.2489 98.5653 11.468 97.9263 11.879C97.2873 12.3172 96.788 12.8639 96.4558 13.5212H95.9565C95.5947 12.8639 95.1228 12.3172 94.4585 11.879C93.8195 11.4408 92.9309 11.2489 91.8497 11.2489C90.7685 11.2489 90.0174 11.4408 89.408 11.8248C88.7965 12.2087 88.3522 12.6469 88.1026 13.1393H87.6032V11.5243H84.1883V18.915C84.1883 20.3923 83.8265 21.5149 83.1325 22.3099C82.4385 23.1049 81.4674 23.4867 80.2465 23.4867C79.1908 23.4867 78.3317 23.2134 77.7478 22.6375C77.1638 22.0616 76.8591 21.1873 76.8591 20.0105V11.5514H73.4442V20.2838C73.4442 21.4878 73.6664 22.5832 74.1657 23.4867C74.665 24.3902 75.3315 25.1017 76.2201 25.6213C77.1088 26.1409 78.1075 26.3871 79.2458 26.3871C80.6062 26.3871 81.6599 26.1409 82.3539 25.6484C83.0479 25.156 83.5197 24.6364 83.7694 24.1148H84.2687V26.1409H87.7386V17.4627C87.7386 16.3944 87.9883 15.5472 88.5151 14.9713C89.0145 14.3954 89.736 14.095 90.6796 14.095C91.4836 14.095 92.1501 14.3141 92.5944 14.7523C93.0663 15.1904 93.2884 15.8477 93.2884 16.6949V26.1116H96.7034V17.4606C96.7034 16.3923 96.953 15.5452 97.4799 14.9693C98.0067 14.3934 98.7282 14.0929 99.6168 14.0929C100.421 14.0929 101.087 14.312 101.532 14.7502C102.003 15.1884 102.226 15.8456 102.226 16.6928V26.1096H105.668V16.4466C105.586 15.324 105.363 14.3391 104.919 13.6005L104.923 13.6046Z" fill="#1A1A1A"/>
</svg>
