<svg width="20" height="20" viewBox="0 0 20 20" fill="none" xmlns="http://www.w3.org/2000/svg">
<mask id="mask0_283_2248" style="mask-type:alpha" maskUnits="userSpaceOnUse" x="0" y="0" width="20" height="20">
<rect width="20" height="20" fill="#D9D9D9"/>
</mask>
<g mask="url(#mask0_283_2248)">
<path d="M4.16659 10.8333C3.93047 10.8333 3.73256 10.7534 3.57284 10.5937C3.41311 10.4339 3.33325 10.236 3.33325 9.99992C3.33325 9.76381 3.41311 9.56589 3.57284 9.40617C3.73256 9.24645 3.93047 9.16659 4.16659 9.16659H9.66659L13.8333 4.99992H12.4999C12.2638 4.99992 12.0659 4.92006 11.9062 4.76034C11.7464 4.60061 11.6666 4.4027 11.6666 4.16659C11.6666 3.93047 11.7464 3.73256 11.9062 3.57284C12.0659 3.41311 12.2638 3.33325 12.4999 3.33325H15.8333C16.0694 3.33325 16.2673 3.41311 16.427 3.57284C16.5867 3.73256 16.6666 3.93047 16.6666 4.16659V7.49992C16.6666 7.73603 16.5867 7.93395 16.427 8.09367C16.2673 8.25339 16.0694 8.33325 15.8333 8.33325C15.5971 8.33325 15.3992 8.25339 15.2395 8.09367C15.0798 7.93395 14.9999 7.73603 14.9999 7.49992V6.16659L10.8124 10.3541C10.6596 10.5069 10.4826 10.6249 10.2812 10.7083C10.0798 10.7916 9.86797 10.8333 9.64575 10.8333H4.16659ZM12.4999 16.6666C12.2638 16.6666 12.0659 16.5867 11.9062 16.427C11.7464 16.2673 11.6666 16.0694 11.6666 15.8333C11.6666 15.5971 11.7464 15.3992 11.9062 15.2395C12.0659 15.0798 12.2638 14.9999 12.4999 14.9999H13.8333L11.7708 12.9583C11.6041 12.7916 11.5208 12.5937 11.5208 12.3645C11.5208 12.1353 11.6041 11.9374 11.7708 11.7708C11.9374 11.6041 12.1388 11.5208 12.3749 11.5208C12.611 11.5208 12.8124 11.6041 12.9791 11.7708L14.9999 13.8333V12.4999C14.9999 12.2638 15.0798 12.0659 15.2395 11.9062C15.3992 11.7464 15.5971 11.6666 15.8333 11.6666C16.0694 11.6666 16.2673 11.7464 16.427 11.9062C16.5867 12.0659 16.6666 12.2638 16.6666 12.4999V15.8333C16.6666 16.0694 16.5867 16.2673 16.427 16.427C16.2673 16.5867 16.0694 16.6666 15.8333 16.6666H12.4999Z" fill="#4F627A"/>
</g>
</svg>
