<svg width="28" height="28" viewBox="0 0 28 28" fill="none" xmlns="http://www.w3.org/2000/svg">
<mask id="mask0_173_2417" style="mask-type:alpha" maskUnits="userSpaceOnUse" x="0" y="0" width="28" height="28">
<rect width="28" height="28" fill="#D9D9D9"/>
</mask>
<g mask="url(#mask0_173_2417)">
<path d="M5.83333 25.6668C5.19167 25.6668 4.64236 25.4384 4.18542 24.9814C3.72847 24.5245 3.5 23.9752 3.5 23.3335V7.00016C3.5 6.3585 3.72847 5.80919 4.18542 5.35225C4.64236 4.8953 5.19167 4.66683 5.83333 4.66683H7V3.50016C7 3.16961 7.11181 2.89252 7.33542 2.66891C7.55903 2.4453 7.83611 2.3335 8.16667 2.3335C8.49722 2.3335 8.77431 2.4453 8.99792 2.66891C9.22153 2.89252 9.33333 3.16961 9.33333 3.50016V4.66683H18.6667V3.50016C18.6667 3.16961 18.7785 2.89252 19.0021 2.66891C19.2257 2.4453 19.5028 2.3335 19.8333 2.3335C20.1639 2.3335 20.441 2.4453 20.6646 2.66891C20.8882 2.89252 21 3.16961 21 3.50016V4.66683H22.1667C22.8083 4.66683 23.3576 4.8953 23.8146 5.35225C24.2715 5.80919 24.5 6.3585 24.5 7.00016V14.4377C24.5 14.7682 24.3882 15.0453 24.1646 15.2689C23.941 15.4925 23.6639 15.6043 23.3333 15.6043C23.0028 15.6043 22.7257 15.4925 22.5021 15.2689C22.2785 15.0453 22.1667 14.7682 22.1667 14.4377V11.6668H5.83333V23.3335H13.0958C13.4264 23.3335 13.6986 23.4453 13.9125 23.6689C14.1264 23.8925 14.2333 24.1696 14.2333 24.5002C14.2333 24.8307 14.1215 25.1078 13.8979 25.3314C13.6743 25.555 13.3972 25.6668 13.0667 25.6668H5.83333ZM5.83333 9.3335H22.1667V7.00016H5.83333V9.3335ZM19.2792 22.9543L23.4208 18.8127C23.6542 18.5793 23.9264 18.4627 24.2375 18.4627C24.5486 18.4627 24.8208 18.5793 25.0542 18.8127C25.2875 19.046 25.4042 19.3231 25.4042 19.6439C25.4042 19.9647 25.2875 20.2418 25.0542 20.4752L20.125 25.4335C19.8917 25.6668 19.6146 25.7835 19.2938 25.7835C18.9729 25.7835 18.6958 25.6668 18.4625 25.4335L15.9833 22.9543C15.75 22.721 15.6333 22.4439 15.6333 22.1231C15.6333 21.8022 15.75 21.5252 15.9833 21.2918C16.2167 21.0585 16.4938 20.9418 16.8146 20.9418C17.1354 20.9418 17.4125 21.0585 17.6458 21.2918L19.2792 22.9543Z" fill="#FF5724"/>
</g>
</svg>
