<svg width="18" height="18" viewBox="0 0 18 18" fill="none" xmlns="http://www.w3.org/2000/svg">
<mask id="mask0_173_2712" style="mask-type:alpha" maskUnits="userSpaceOnUse" x="0" y="0" width="18" height="18">
<rect width="18" height="18" fill="#D9D9D9"/>
</mask>
<g mask="url(#mask0_173_2712)">
<path d="M8.46563 15.1498C8.28438 15.0873 8.125 14.9873 7.9875 14.8498L6.69375 13.6686C5.36875 12.4561 4.17188 11.2529 3.10313 10.0592C2.03437 8.86543 1.5 7.54981 1.5 6.11231C1.5 4.9373 1.89375 3.95605 2.68125 3.16855C3.46875 2.38105 4.45 1.9873 5.625 1.9873C6.2875 1.9873 6.9125 2.12793 7.5 2.40918C8.0875 2.69043 8.5875 3.0748 9 3.5623C9.4125 3.0748 9.9125 2.69043 10.5 2.40918C11.0875 2.12793 11.7125 1.9873 12.375 1.9873C13.55 1.9873 14.5313 2.38105 15.3188 3.16855C16.1063 3.95605 16.5 4.9373 16.5 6.11231C16.5 7.54981 15.9688 8.86856 14.9062 10.0686C13.8438 11.2686 12.6375 12.4748 11.2875 13.6873L10.0125 14.8498C9.875 14.9873 9.71563 15.0873 9.53438 15.1498C9.35313 15.2123 9.175 15.2436 9 15.2436C8.825 15.2436 8.64688 15.2123 8.46563 15.1498ZM8.2875 5.0623C7.925 4.5498 7.5375 4.15918 7.125 3.89043C6.7125 3.62168 6.2125 3.4873 5.625 3.4873C4.875 3.4873 4.25 3.7373 3.75 4.2373C3.25 4.7373 3 5.3623 3 6.11231C3 6.76231 3.23125 7.45293 3.69375 8.18418C4.15625 8.91543 4.70938 9.62481 5.35313 10.3123C5.99688 10.9998 6.65938 11.6436 7.34062 12.2436C8.02187 12.8436 8.575 13.3373 9 13.7248C9.425 13.3373 9.97813 12.8436 10.6594 12.2436C11.3406 11.6436 12.0031 10.9998 12.6469 10.3123C13.2906 9.62481 13.8438 8.91543 14.3063 8.18418C14.7688 7.45293 15 6.76231 15 6.11231C15 5.3623 14.75 4.7373 14.25 4.2373C13.75 3.7373 13.125 3.4873 12.375 3.4873C11.7875 3.4873 11.2875 3.62168 10.875 3.89043C10.4625 4.15918 10.075 4.5498 9.7125 5.0623C9.625 5.1873 9.51875 5.28105 9.39375 5.34355C9.26875 5.40605 9.1375 5.4373 9 5.4373C8.8625 5.4373 8.73125 5.40605 8.60625 5.34355C8.48125 5.28105 8.375 5.1873 8.2875 5.0623Z" fill="#212730"/>
</g>
</svg>
