<svg width="20" height="20" viewBox="0 0 20 20" fill="none" xmlns="http://www.w3.org/2000/svg">
<mask id="mask0_283_2829" style="mask-type:alpha" maskUnits="userSpaceOnUse" x="0" y="0" width="20" height="20">
<rect width="20" height="20" fill="#D9D9D9"/>
</mask>
<g mask="url(#mask0_283_2829)">
<path d="M5 18.3335C4.30556 18.3335 3.71528 18.0905 3.22917 17.6044C2.74306 17.1183 2.5 16.528 2.5 15.8335V15.0002C2.5 14.5419 2.66319 14.1495 2.98958 13.8231C3.31597 13.4967 3.70833 13.3335 4.16667 13.3335H5V3.33354C5 2.8752 5.16319 2.48284 5.48958 2.15645C5.81597 1.83006 6.20833 1.66687 6.66667 1.66687H15.8333C16.2917 1.66687 16.684 1.83006 17.0104 2.15645C17.3368 2.48284 17.5 2.8752 17.5 3.33354V15.8335C17.5 16.528 17.2569 17.1183 16.7708 17.6044C16.2847 18.0905 15.6944 18.3335 15 18.3335H5ZM15 16.6669C15.2361 16.6669 15.434 16.587 15.5938 16.4273C15.7535 16.2676 15.8333 16.0696 15.8333 15.8335V3.33354H6.66667V13.3335H12.5C12.9583 13.3335 13.3507 13.4967 13.6771 13.8231C14.0035 14.1495 14.1667 14.5419 14.1667 15.0002V15.8335C14.1667 16.0696 14.2465 16.2676 14.4062 16.4273C14.566 16.587 14.7639 16.6669 15 16.6669ZM8.33333 7.5002C8.09722 7.5002 7.89931 7.42034 7.73958 7.26062C7.57986 7.1009 7.5 6.90298 7.5 6.66687C7.5 6.43076 7.57986 6.23284 7.73958 6.07312C7.89931 5.9134 8.09722 5.83354 8.33333 5.83354H14.1667C14.4028 5.83354 14.6007 5.9134 14.7604 6.07312C14.9201 6.23284 15 6.43076 15 6.66687C15 6.90298 14.9201 7.1009 14.7604 7.26062C14.6007 7.42034 14.4028 7.5002 14.1667 7.5002H8.33333ZM8.33333 10.0002C8.09722 10.0002 7.89931 9.92034 7.73958 9.76062C7.57986 9.6009 7.5 9.40298 7.5 9.16687C7.5 8.93076 7.57986 8.73284 7.73958 8.57312C7.89931 8.4134 8.09722 8.33354 8.33333 8.33354H14.1667C14.4028 8.33354 14.6007 8.4134 14.7604 8.57312C14.9201 8.73284 15 8.93076 15 9.16687C15 9.40298 14.9201 9.6009 14.7604 9.76062C14.6007 9.92034 14.4028 10.0002 14.1667 10.0002H8.33333ZM5 16.6669H12.5V15.0002H4.16667V15.8335C4.16667 16.0696 4.24653 16.2676 4.40625 16.4273C4.56597 16.587 4.76389 16.6669 5 16.6669ZM5 16.6669H4.16667H12.5H5Z" fill="#4F627A"/>
</g>
</svg>
