<svg width="20" height="20" viewBox="0 0 20 20" fill="none" xmlns="http://www.w3.org/2000/svg">
<path d="M10 14.3959L6.5417 16.4792C6.38892 16.5764 6.2292 16.6181 6.06253 16.6042C5.89586 16.5903 5.75003 16.5347 5.62503 16.4375C5.50003 16.3403 5.40281 16.2189 5.33336 16.0734C5.26392 15.9278 5.25003 15.7645 5.2917 15.5834L6.20836 11.6459L3.14586 9.00002C3.00697 8.87502 2.92031 8.73252 2.88586 8.57252C2.85142 8.41252 2.8617 8.25641 2.9167 8.10419C2.9717 7.95197 3.05503 7.82696 3.1667 7.72919C3.27836 7.63141 3.43114 7.56891 3.62503 7.54169L7.6667 7.18752L9.2292 3.47919C9.29864 3.31252 9.40642 3.18752 9.55253 3.10419C9.69864 3.02085 9.84781 2.97919 10 2.97919C10.1523 2.97919 10.3014 3.02085 10.4475 3.10419C10.5936 3.18752 10.7014 3.31252 10.7709 3.47919L12.3334 7.18752L16.375 7.54169C16.5695 7.56947 16.7223 7.63196 16.8334 7.72919C16.9445 7.82641 17.0278 7.95141 17.0834 8.10419C17.1389 8.25697 17.1495 8.41335 17.115 8.57335C17.0806 8.73335 16.9936 8.87558 16.8542 9.00002L13.7917 11.6459L14.7084 15.5834C14.75 15.7639 14.7361 15.9272 14.6667 16.0734C14.5973 16.2195 14.5 16.3409 14.375 16.4375C14.25 16.5342 14.1042 16.5897 13.9375 16.6042C13.7709 16.6186 13.6111 16.577 13.4584 16.4792L10 14.3959Z" fill="#FF5724"/>
</svg>
