<svg width="22" height="22" viewBox="0 0 22 22" fill="none" xmlns="http://www.w3.org/2000/svg">
<path d="M11.3265 16.39C16.6275 10.198 10.6095 5 10.6095 5C10.6095 5 4.59146 10.198 9.89246 16.39V10.555H11.3265V16.39Z" fill="#FDA47D"/>
<path d="M12.684 16.9998C19.741 15.8128 19.211 8.5628 19.211 8.5628C19.211 8.5628 16.972 8.3988 14.779 9.4638C14.866 9.8948 14.923 10.3438 14.94 10.8108C14.953 11.1578 14.943 11.5038 14.911 11.8488L16.712 10.0478L17.727 11.0618L14.169 14.6188C13.803 15.4288 13.306 16.2258 12.684 16.9998ZM8.53604 16.9998C7.91404 16.2258 7.41704 15.4288 7.05104 14.6188L3.58604 11.1548L4.60104 10.1398L6.30904 11.8478C6.27704 11.5038 6.26804 11.1568 6.28004 10.8108C6.29704 10.3438 6.35404 9.8948 6.44104 9.4638C4.24804 8.3988 2.00904 8.5628 2.00904 8.5628C2.00904 8.5628 1.47904 15.8128 8.53604 16.9998Z" fill="#FDA47D"/>
</svg>
