<svg width="18" height="18" viewBox="0 0 18 18" fill="none" xmlns="http://www.w3.org/2000/svg">
<mask id="mask0_173_2511" style="mask-type:alpha" maskUnits="userSpaceOnUse" x="0" y="0" width="18" height="18">
<rect width="18" height="18" fill="#D9D9D9"/>
</mask>
<g mask="url(#mask0_173_2511)">
<path d="M10.4438 6.16873L14.175 2.45623C14.3125 2.31873 14.4844 2.24686 14.6906 2.24061C14.8969 2.23436 15.075 2.30623 15.225 2.45623C15.3625 2.59373 15.4313 2.76873 15.4313 2.98123C15.4313 3.19373 15.3625 3.36873 15.225 3.50623L10.9688 7.76248C10.8188 7.91248 10.6438 7.98748 10.4438 7.98748C10.2438 7.98748 10.0688 7.91248 9.91875 7.76248L7.78125 5.62498C7.63125 5.47498 7.55938 5.29998 7.56563 5.09998C7.57188 4.89998 7.65 4.72498 7.8 4.57498C7.95 4.43748 8.125 4.36561 8.325 4.35936C8.525 4.35311 8.7 4.42498 8.85 4.57498L10.4438 6.16873ZM11.2125 15.3L15.675 13.9125C15.6125 13.8 15.5219 13.7031 15.4031 13.6219C15.2844 13.5406 15.15 13.5 15 13.5H11.2125C10.875 13.5 10.6062 13.4875 10.4062 13.4625C10.2063 13.4375 10 13.3875 9.7875 13.3125L8.71875 12.9562C8.51875 12.8937 8.375 12.7687 8.2875 12.5812C8.2 12.3937 8.1875 12.2 8.25 12C8.3125 11.8 8.43438 11.6531 8.61563 11.5594C8.79688 11.4656 8.9875 11.45 9.1875 11.5125L9.975 11.775C10.1875 11.8375 10.4281 11.8875 10.6969 11.925C10.9656 11.9625 11.3313 11.9875 11.7938 12H12C12 11.8625 11.9594 11.7312 11.8781 11.6062C11.7969 11.4812 11.7 11.4 11.5875 11.3625L7.2 9.74998H6V13.875L11.2125 15.3ZM10.8188 16.7625L6 15.4125C5.9 15.7375 5.70312 16 5.40938 16.2C5.11563 16.4 4.8125 16.5 4.5 16.5H3C2.5875 16.5 2.23438 16.3531 1.94063 16.0594C1.64688 15.7656 1.5 15.4125 1.5 15V9.74998C1.5 9.33748 1.64688 8.98436 1.94063 8.69061C2.23438 8.39686 2.5875 8.24998 3 8.24998H7.2C7.2875 8.24998 7.375 8.25936 7.4625 8.27811C7.55 8.29686 7.63125 8.31873 7.70625 8.34373L12.1125 9.97499C12.525 10.125 12.8594 10.3875 13.1156 10.7625C13.3719 11.1375 13.5 11.55 13.5 12H15C15.625 12 16.1562 12.2062 16.5938 12.6187C17.0312 13.0312 17.25 13.575 17.25 14.25C17.25 14.525 17.1781 14.7406 17.0344 14.8969C16.8906 15.0531 16.6688 15.1812 16.3688 15.2812L11.6812 16.7437C11.5437 16.7937 11.4 16.8187 11.25 16.8187C11.1 16.8187 10.9563 16.8 10.8188 16.7625ZM3 15H4.5V9.74998H3V15Z" fill="#212730"/>
</g>
</svg>
