<svg width="20" height="20" viewBox="0 0 20 20" fill="none" xmlns="http://www.w3.org/2000/svg">
<mask id="mask0_11_1703" style="mask-type:alpha" maskUnits="userSpaceOnUse" x="0" y="0" width="20" height="20">
<rect width="20" height="20" fill="#D9D9D9"/>
</mask>
<g mask="url(#mask0_11_1703)">
<path d="M9.56246 12.0625L6.54163 9.04165C6.49996 8.99998 6.46871 8.95484 6.44788 8.90623C6.42704 8.85762 6.41663 8.80554 6.41663 8.74998C6.41663 8.63887 6.45482 8.54165 6.53121 8.45831C6.6076 8.37498 6.70829 8.33331 6.83329 8.33331H13.1666C13.2916 8.33331 13.3923 8.37498 13.4687 8.45831C13.5451 8.54165 13.5833 8.63887 13.5833 8.74998C13.5833 8.77776 13.5416 8.87498 13.4583 9.04165L10.4375 12.0625C10.368 12.1319 10.2986 12.1805 10.2291 12.2083C10.1597 12.2361 10.0833 12.25 9.99996 12.25C9.91663 12.25 9.84024 12.2361 9.77079 12.2083C9.70135 12.1805 9.6319 12.1319 9.56246 12.0625Z" fill="#AEBBCB"/>
</g>
</svg>
