<svg width="24" height="24" viewBox="0 0 24 24" fill="none" xmlns="http://www.w3.org/2000/svg">
<mask id="mask0_173_2320" style="mask-type:alpha" maskUnits="userSpaceOnUse" x="0" y="0" width="24" height="24">
<rect width="24" height="24" fill="#D9D9D9"/>
</mask>
<g mask="url(#mask0_173_2320)">
<path d="M10.55 18.2L15.725 12H11.725L12.45 6.32497L7.82497 13H11.3L10.55 18.2ZM8.99997 15H5.89997C5.49997 15 5.20414 14.8208 5.01247 14.4625C4.8208 14.1041 4.84164 13.7583 5.07497 13.425L12.55 2.67496C12.7166 2.44163 12.9333 2.27913 13.2 2.18746C13.4666 2.0958 13.7416 2.09996 14.025 2.19996C14.3083 2.29996 14.5166 2.47496 14.65 2.72496C14.7833 2.97496 14.8333 3.24163 14.8 3.52497L14 9.99997H17.875C18.3083 9.99997 18.6125 10.1916 18.7875 10.575C18.9625 10.9583 18.9083 11.3166 18.625 11.65L10.4 21.5C10.2166 21.7166 9.99164 21.8583 9.72497 21.925C9.4583 21.9916 9.19997 21.9666 8.94997 21.85C8.69997 21.7333 8.50414 21.5541 8.36247 21.3125C8.2208 21.0708 8.16664 20.8083 8.19997 20.525L8.99997 15Z" fill="#FF5724"/>
</g>
</svg>
