<svg width="90" height="90" viewBox="0 0 90 90" fill="none" xmlns="http://www.w3.org/2000/svg">
<g clip-path="url(#clip0_173_2648)">
<path d="M0 0H90V90H0V0Z" fill="white"/>
<path d="M57.3657 38.4333C58.2488 38.378 61.6715 38.2671 62.5321 38.5576C62.9459 38.6973 63.114 39.7619 63.1829 40.2313C64.7318 40.125 66.5736 40.1906 68.1234 40.2566C67.8451 47.2045 68.1422 54.2723 68.0222 61.2303C67.9856 63.3528 67.9907 65.5873 68.1221 67.7015C68.7986 67.6975 69.3567 67.6197 69.9007 68.042L69.8315 68.2274C69.655 68.2894 69.4716 68.3295 69.2853 68.3469C67.8745 68.4881 64.3612 68.3899 62.746 68.3901L49.7386 68.3844L30.5723 68.3891C27.3209 68.3939 24.0464 68.4068 20.7933 68.3919C20.5067 68.3906 20.3841 68.3472 20.1824 68.1837C20.2287 67.9264 20.1929 68.0222 20.4241 67.7962C21.2571 67.6223 26.5417 67.6596 27.4527 67.7594C27.4497 64.882 27.4681 62.0045 27.5079 59.1273L27.4994 49.9473C27.4989 49.0458 27.4372 46.2528 27.5944 45.4832C26.5142 45.8224 25.3912 46.162 24.4932 46.8748C21.7324 49.0664 22.2541 53.6715 22.2546 56.8402L22.2582 64.0176C22.2585 64.6159 22.4077 66.7825 21.9942 67.0931C21.7663 67.0956 21.7385 67.093 21.5434 66.9766C21.3515 66.2211 21.4197 62.3939 21.4216 61.3693L21.4024 52.8195C21.4057 50.4321 21.717 48.3146 23.493 46.4978C24.9286 44.9161 28.7813 44.1235 30.7846 44.6091C32.9573 45.1359 34.2547 46.1049 36.8147 45.9344C38.9191 45.7943 40.34 45.0628 42.346 44.632C43.176 44.4537 45.0096 44.535 45.922 44.5388L51.2942 44.5608C51.1907 43.4316 51.2481 41.3875 51.251 40.1849C52.2625 40.2462 54.9363 40.2096 55.9532 40.1613C56.4752 39.6308 55.5564 38.7518 57.3657 38.4333Z" fill="#212730"/>
<path d="M67.0137 43.6487L67.0414 43.6445L67.1412 43.7245C67.1906 44.5125 67.1364 45.7456 67.1354 46.5741L67.1365 52.3988C67.1396 57.4217 67.2224 62.7095 67.0675 67.711C65.4212 67.6372 52.4776 67.7677 52.1578 67.6188L52.1434 67.346L52.1709 50.7619C52.1632 48.4964 52.2573 45.9081 52.1475 43.6749C53.7447 43.7119 55.387 43.6345 56.9724 43.7107C57.7631 43.7487 58.898 44.2362 59.7584 44.2134C60.5378 44.1927 61.2383 43.8276 61.9811 43.7714C63.6333 43.6466 65.3549 43.6604 67.0137 43.6487Z" fill="white"/>
<path d="M63.4829 62.1326C63.8432 62.1269 64.1655 62.0576 64.3945 62.3535C64.4499 62.9325 64.4588 65.1653 64.3012 65.6593C64.0096 65.7528 63.889 65.8088 63.5814 65.7948C63.3408 65.4933 63.4625 62.6579 63.4829 62.1326Z" fill="#212730"/>
<path d="M63.5231 51.1787L64.4486 51.2859C64.4146 51.8775 64.512 54.3403 64.3158 54.5987C64.1953 54.6158 63.4754 54.7258 63.4618 54.5758C63.3892 53.7758 63.3271 51.8964 63.5231 51.1787Z" fill="#212730"/>
<path d="M63.5344 45.5938C63.8624 45.6233 63.9762 45.6175 64.272 45.7673C64.5021 46.2052 64.4057 48.7653 64.2816 49.2722C63.9618 49.3391 63.8438 49.4078 63.5895 49.2875C63.3717 48.7306 63.4194 46.2114 63.5344 45.5938Z" fill="#212730"/>
<path d="M63.6786 56.5552C63.8152 56.5906 63.9436 56.6428 64.0762 56.6919C64.5248 57.0851 64.5449 59.7756 64.301 60.1948C63.9897 60.212 63.8648 60.2323 63.5605 60.1546C63.2705 59.697 63.4408 57.094 63.6786 56.5552Z" fill="#212730"/>
<path d="M54.8542 51.1943C55.1574 51.2219 55.4597 51.2199 55.7185 51.3717C55.7625 51.4725 55.8206 54.182 55.8428 54.5673L54.7783 54.5811C54.895 53.7652 54.8572 52.0644 54.8542 51.1943Z" fill="#212730"/>
<path d="M54.9195 62.2226C55.2162 62.2165 55.5142 62.1769 55.7744 62.296C55.8543 62.7879 55.7523 65.2268 55.5525 65.6433C55.3146 65.7386 55.2585 65.7538 55.005 65.7914C54.7569 65.493 54.8822 62.7458 54.9195 62.2226Z" fill="#212730"/>
<path d="M55.0632 56.6553C55.3105 56.6731 55.419 56.6531 55.5982 56.8173C55.837 57.2593 55.842 59.51 55.7569 59.9712L55.613 60.0591C55.3679 60.1104 55.2201 60.1299 54.9753 60.1548L54.8726 60.0362C54.7972 59.3597 54.8152 57.2551 55.0632 56.6553Z" fill="#212730"/>
<path d="M54.9428 45.6908C55.2097 45.6864 55.4702 45.6581 55.7098 45.7732C55.8029 46.262 55.7104 48.6125 55.6949 49.2585C55.4361 49.3142 55.155 49.3981 54.9521 49.2092C54.8381 48.3991 54.9156 46.5664 54.9428 45.6908Z" fill="#212730"/>
<path d="M59.5588 51.0068C59.7528 51.0433 59.7725 51.0393 59.9297 51.1505C59.976 51.2663 60.0149 51.3807 60.0252 51.5486C60.0844 52.5124 60.1014 53.5878 59.9772 54.5475C59.8885 54.6539 59.8175 54.7391 59.7643 54.803L59.4512 54.7049C59.0604 54.2878 59.1898 51.4741 59.5588 51.0068Z" fill="#212730"/>
<path d="M59.6786 62.0015L59.93 62.141C60.1872 62.6533 60.0541 64.9062 59.9382 65.5527C59.8994 65.7695 59.7567 65.8603 59.6005 66.0049C59.0712 65.6374 59.1163 62.5783 59.6786 62.0015Z" fill="#212730"/>
<path d="M59.5674 45.4697C59.6613 45.4926 59.9236 45.5748 59.9427 45.6672C60.1188 46.5195 60.1318 48.7356 59.8227 49.4922L59.5103 49.3664C59.1404 48.8979 59.1851 45.9931 59.5674 45.4697Z" fill="#212730"/>
<path d="M59.6319 56.3662C60.3002 56.6686 59.9674 58.9832 60.0258 59.6628C60.0441 59.8774 59.9811 60.1325 59.8503 60.3115C59.5029 60.2306 59.5977 60.2994 59.3902 60.0848C59.1475 59.142 59.2337 57.2639 59.6319 56.3662Z" fill="#212730"/>
<path d="M29.779 45.2956C30.0376 45.2659 30.137 45.2432 30.3984 45.3038C30.5237 45.4797 30.5134 45.8254 30.521 46.0475C30.6251 49.0909 30.4618 52.143 30.6004 55.1824C30.6396 55.5437 30.6986 55.9243 31.0109 56.144C31.3344 56.3717 31.9416 56.3211 32.3343 56.2713C35.4575 55.8747 39.2423 56.4817 42.2929 56.0756C42.2262 53.4256 42.3076 50.7546 42.248 48.1026C42.2277 47.1985 42.2035 46.2909 42.2219 45.3868C43.0356 45.351 43.85 45.3347 44.6644 45.338C44.5566 47.3505 44.6647 50.2686 44.7037 52.3043C44.7414 54.1925 44.7241 56.0815 44.6517 57.9687C44.6189 61.4314 44.7809 64.4739 44.8217 67.8627C43.013 67.6805 39.4338 67.7486 37.497 67.7597C34.6851 67.7756 31.2055 67.6565 28.4698 67.8112C28.4883 66.0401 28.3862 63.9819 28.3813 62.1458L28.3848 45.4548C28.7965 45.4335 29.3585 45.3472 29.779 45.2956Z" fill="#FF5724"/>
<path d="M31.2808 45.7236C31.3142 45.7392 31.3478 45.7546 31.3815 45.7698C34.7071 47.2617 38.1298 47.1076 41.4871 45.8383C41.3638 46.5818 41.4506 48.6029 41.4632 49.422C41.4874 51.078 41.4861 52.7343 41.4592 54.3904L41.4771 55.3609C38.0867 55.44 34.7815 55.4076 31.4 55.447C31.4665 54.2844 31.3823 52.1885 31.381 50.9529C31.3796 49.5619 31.4422 46.9959 31.2808 45.7236Z" fill="white"/>
<path d="M51.1523 52.1768C51.183 52.181 51.2516 52.238 51.283 52.2604C51.2536 57.4226 51.3684 62.5901 51.2426 67.7542C50.2386 67.5873 46.8543 67.6775 45.7997 67.7448L45.6152 67.7427C45.4628 67.5583 45.4817 67.2289 45.4803 66.9793L45.4639 61.0558C45.4443 59.0513 45.3394 56.5173 45.6834 54.5439C45.7874 53.9475 46.196 53.552 46.5575 53.1069C47.531 51.9092 49.5481 52.187 51.1523 52.1768Z" fill="white"/>
<path d="M45.3499 45.4558C46.8843 45.5552 49.735 45.4588 51.3363 45.4438C51.277 47.1918 51.2466 49.5061 51.2961 51.2444C50.6927 51.2364 50.1063 51.2718 49.5042 51.3025C47.6186 51.3483 46.4909 51.3876 45.4931 53.1488C45.5179 51.3927 45.4518 49.6191 45.4547 47.8613C45.456 47.077 45.4547 46.2295 45.3499 45.4558Z" fill="white"/>
<path d="M58.3459 39.3284C59.6684 39.292 60.8699 39.3356 62.1945 39.3841C62.237 40.9684 62.2255 42.076 60.8031 43.0325C57.9043 44.2834 57.1055 41.7433 57.1366 39.3892L58.3459 39.3284Z" fill="white"/>
<path d="M63.0104 40.8918C63.5829 41.0473 66.6073 40.8769 67.3428 40.8389C67.2694 41.3246 67.3066 42.5383 67.197 42.8255L67.0401 42.811C65.4874 42.8204 64.0357 42.9059 62.4496 42.8938C62.7819 42.2405 62.9055 41.6063 63.0104 40.8918Z" fill="#FF5724"/>
<path d="M51.8312 40.9673C52.9854 40.9694 54.8226 40.9319 55.9182 41.1362C56.2608 41.7405 56.7882 42.2948 57.096 42.8906C55.6328 42.7301 53.4556 42.8615 51.9254 42.9074C51.875 42.2791 51.8581 41.601 51.8312 40.9673Z" fill="#FF5724"/>
<path d="M35.7023 23.8499C37.9748 23.6753 39.572 24.1402 41.2332 25.7958C42.922 27.4789 43.0974 29.4251 43.0692 31.7042C43.4293 31.6776 43.7904 31.6678 44.1513 31.675C44.5281 31.6815 44.6423 31.6921 44.8842 31.943C44.8947 32.2819 44.9406 32.2072 44.7836 32.4632C43.9869 32.6295 42.2393 32.5764 41.3379 32.5738C40.0243 32.5703 38.7107 32.5831 37.3974 32.6122C36.3338 32.6219 28.4702 32.697 28.0648 32.3664C27.9963 32.0232 27.9751 32.141 28.0836 31.8625C28.5009 31.5324 29.3333 31.7049 29.8881 31.7528C29.8884 27.6711 31.2611 24.4207 35.7023 23.8499Z" fill="#212730"/>
<path d="M35.8564 24.7293C37.4945 24.445 38.9936 25.0232 40.1572 26.1837C42.033 28.0546 42.1822 29.2 42.2004 31.7338C41.0481 31.6372 39.8195 31.6588 38.6587 31.6556C38.8047 31.5079 38.9644 31.3424 39.0408 31.147C39.7984 29.2102 39.1369 27.4058 37.0194 27.0026C36.9692 27.001 36.919 26.9994 36.8688 26.9977C34.2732 26.6768 32.327 29.7303 34.407 31.7239C33.1954 31.7099 31.9839 31.6872 30.7726 31.6559C30.8867 28.1129 31.9035 25.2949 35.8564 24.7293Z" fill="white"/>
<path d="M35.9626 27.6997C39.2093 27.342 39.3793 31.0176 37.1596 31.723C36.3313 31.7478 35.8746 31.7671 35.0656 31.4974C33.9727 29.9967 34.2311 28.4796 35.9626 27.6997Z" fill="#FF5724"/>
<path d="M31.025 32.9209C31.1755 32.9912 31.251 33.001 31.2677 33.2078C31.4856 35.5394 31.0737 38.4178 32.7263 40.3328C35.5187 43.5688 40.0325 42.147 41.205 38.2709C41.5723 37.0566 41.4909 35.8746 41.5968 34.6282C41.6312 34.2243 41.6619 32.913 42.2353 32.9931C42.7411 33.7821 42.1921 38.9034 42.0327 40.0575C41.9213 41.1611 42.0207 43.0953 41.7984 44.2096C41.7557 44.4232 41.2006 44.079 41.0795 43.9072C40.6355 43.2773 40.9533 42.1775 41.0736 41.4444C38.1045 43.4252 34.5246 43.6813 31.8526 41.0817C31.9547 41.7343 32.4211 43.8407 31.4435 44.0723C31.2756 44.112 31.3111 44.0936 31.1648 44.0021C31.1491 43.9348 31.1356 43.8671 31.1243 43.799C31.0559 43.3811 31.1667 42.1144 31.1152 41.5569C30.9294 39.5408 29.8507 34.5354 31.025 32.9209Z" fill="#212730"/>
<path d="M35.924 21.638C40.7177 21.2795 44.2176 23.948 45.2124 28.4816C45.2893 28.8322 45.5212 29.1733 45.3383 29.5334C45.29 29.5326 45.2418 29.5311 45.1935 29.5288C45.0598 29.5223 44.7278 29.5385 44.6822 29.354C44.0017 26.5974 42.4304 24.0206 39.6739 22.9965C38.8707 22.6981 36.1095 22.1987 35.8615 21.9278L35.924 21.638Z" fill="#212730"/>
</g>
<defs>
<clipPath id="clip0_173_2648">
<rect width="90" height="90" fill="white"/>
</clipPath>
</defs>
</svg>
