<svg width="28" height="28" viewBox="0 0 28 28" fill="none" xmlns="http://www.w3.org/2000/svg">
<mask id="mask0_173_2361" style="mask-type:alpha" maskUnits="userSpaceOnUse" x="0" y="0" width="28" height="28">
<rect width="28" height="28" fill="#D9D9D9"/>
</mask>
<g mask="url(#mask0_173_2361)">
<path d="M7 25.6668C6.02778 25.6668 5.20139 25.3266 4.52083 24.646C3.84028 23.9654 3.5 23.1391 3.5 22.1668V21.0002C3.5 20.3585 3.72847 19.8092 4.18542 19.3522C4.64236 18.8953 5.19167 18.6668 5.83333 18.6668H7V4.66683C7 4.02516 7.22847 3.47586 7.68542 3.01891C8.14236 2.56197 8.69167 2.3335 9.33333 2.3335H22.1667C22.8083 2.3335 23.3576 2.56197 23.8146 3.01891C24.2715 3.47586 24.5 4.02516 24.5 4.66683V22.1668C24.5 23.1391 24.1597 23.9654 23.4792 24.646C22.7986 25.3266 21.9722 25.6668 21 25.6668H7ZM21 23.3335C21.3306 23.3335 21.6076 23.2217 21.8312 22.9981C22.0549 22.7745 22.1667 22.4974 22.1667 22.1668V4.66683H9.33333V18.6668H17.5C18.1417 18.6668 18.691 18.8953 19.1479 19.3522C19.6049 19.8092 19.8333 20.3585 19.8333 21.0002V22.1668C19.8333 22.4974 19.9451 22.7745 20.1688 22.9981C20.3924 23.2217 20.6694 23.3335 21 23.3335ZM11.6667 10.5002C11.3361 10.5002 11.059 10.3884 10.8354 10.1647C10.6118 9.94113 10.5 9.66405 10.5 9.3335C10.5 9.00294 10.6118 8.72586 10.8354 8.50225C11.059 8.27863 11.3361 8.16683 11.6667 8.16683H19.8333C20.1639 8.16683 20.441 8.27863 20.6646 8.50225C20.8882 8.72586 21 9.00294 21 9.3335C21 9.66405 20.8882 9.94113 20.6646 10.1647C20.441 10.3884 20.1639 10.5002 19.8333 10.5002H11.6667ZM11.6667 14.0002C11.3361 14.0002 11.059 13.8884 10.8354 13.6647C10.6118 13.4411 10.5 13.1641 10.5 12.8335C10.5 12.5029 10.6118 12.2259 10.8354 12.0022C11.059 11.7786 11.3361 11.6668 11.6667 11.6668H19.8333C20.1639 11.6668 20.441 11.7786 20.6646 12.0022C20.8882 12.2259 21 12.5029 21 12.8335C21 13.1641 20.8882 13.4411 20.6646 13.6647C20.441 13.8884 20.1639 14.0002 19.8333 14.0002H11.6667ZM7 23.3335H17.5V21.0002H5.83333V22.1668C5.83333 22.4974 5.94514 22.7745 6.16875 22.9981C6.39236 23.2217 6.66944 23.3335 7 23.3335ZM7 23.3335H5.83333H17.5H7Z" fill="#FF5724"/>
</g>
</svg>
