<svg width="32" height="32" viewBox="0 0 32 32" fill="none" xmlns="http://www.w3.org/2000/svg">
<rect width="32" height="32" rx="5" fill="#FFF9F3"/>
<path d="M15.0975 9.89137C15.4597 9.13224 16.5403 9.13224 16.9025 9.89137L18.0704 12.3388C18.2162 12.6443 18.5066 12.8553 18.8422 12.8996L21.5308 13.254C22.3647 13.3639 22.6986 14.3916 22.0885 14.9707L20.1218 16.8377C19.8763 17.0707 19.7653 17.4122 19.827 17.745L20.3207 20.4115C20.4739 21.2386 19.5997 21.8737 18.8604 21.4725L16.477 20.1789C16.1795 20.0174 15.8205 20.0174 15.523 20.1789L13.1396 21.4725C12.4003 21.8737 11.5261 21.2386 11.6793 20.4115L12.173 17.745C12.2347 17.4122 12.1237 17.0707 11.8782 16.8377L9.91145 14.9707C9.30142 14.3916 9.63533 13.3639 10.4692 13.254L13.1578 12.8996C13.4934 12.8553 13.7838 12.6443 13.9296 12.3388L15.0975 9.89137Z" fill="#FF5724"/>
</svg>
