<svg width="57" height="50" viewBox="0 0 57 50" fill="none" xmlns="http://www.w3.org/2000/svg">
<g opacity="0.3">
<path d="M22.2691 0.755514C23.1065 -0.251838 24.6528 -0.251838 25.4903 0.755514L29.151 5.15867C29.6673 5.77975 30.4948 6.0486 31.2776 5.84964L36.8272 4.4391C38.0969 4.11639 39.3478 5.02527 39.4333 6.3325L39.8067 12.0464C39.8594 12.8524 40.3707 13.5562 41.121 13.8554L46.4398 15.9762C47.6567 16.4615 48.1345 17.9321 47.4353 19.0398L44.3788 23.882C43.9477 24.565 43.9477 25.435 44.3788 26.118L47.4353 30.9602C48.1345 32.0679 47.6567 33.5385 46.4398 34.0238L41.121 36.1446C40.3707 36.4438 39.8594 37.1476 39.8067 37.9536L39.4333 43.6675C39.3478 44.9747 38.0969 45.8836 36.8272 45.5609L31.2776 44.1504C30.4948 43.9514 29.6673 44.2202 29.151 44.8413L25.4903 49.2445C24.6528 50.2518 23.1065 50.2518 22.2691 49.2445L18.6084 44.8413C18.092 44.2202 17.2646 43.9514 16.4818 44.1504L10.9322 45.5609C9.66251 45.8836 8.41154 44.9747 8.32611 43.6675L7.95268 37.9536C7.90001 37.1476 7.38862 36.4438 6.63838 36.1446L1.31952 34.0238C0.102674 33.5385 -0.375152 32.0679 0.324099 30.9602L3.38054 26.118C3.81166 25.435 3.81166 24.565 3.38054 23.882L0.324099 19.0398C-0.375153 17.9321 0.102674 16.4615 1.31952 15.9762L6.63838 13.8554C7.38862 13.5562 7.90001 12.8524 7.95268 12.0464L8.32611 6.3325C8.41154 5.02527 9.66251 4.11639 10.9322 4.4391L16.4818 5.84964C17.2646 6.0486 18.092 5.77975 18.6084 5.15867L22.2691 0.755514Z" fill="#FF5724"/>
<path d="M32.1428 19.6431L19.866 32.1431L14.2856 26.4612" stroke="white" stroke-width="3" stroke-linecap="round" stroke-linejoin="round"/>
</g>
<path d="M31.0189 0.755514C31.8564 -0.251838 33.4027 -0.251838 34.2402 0.755514L37.9009 5.15867C38.4172 5.77975 39.2446 6.0486 40.0274 5.84964L45.5771 4.4391C46.8467 4.11639 48.0977 5.02527 48.1831 6.3325L48.5566 12.0464C48.6092 12.8524 49.1206 13.5562 49.8709 13.8554L55.1897 15.9762C56.4066 16.4615 56.8844 17.9321 56.1851 19.0398L53.1287 23.882C52.6976 24.565 52.6976 25.435 53.1287 26.118L56.1851 30.9602C56.8844 32.0679 56.4066 33.5385 55.1897 34.0238L49.8709 36.1446C49.1206 36.4438 48.6092 37.1476 48.5566 37.9536L48.1831 43.6675C48.0977 44.9747 46.8467 45.8836 45.5771 45.5609L40.0274 44.1504C39.2446 43.9514 38.4172 44.2202 37.9009 44.8413L34.2402 49.2445C33.4027 50.2518 31.8564 50.2518 31.0189 49.2445L27.3583 44.8413C26.8419 44.2202 26.0145 43.9514 25.2317 44.1504L19.682 45.5609C18.4124 45.8836 17.1614 44.9747 17.076 43.6675L16.7026 37.9536C16.6499 37.1476 16.1385 36.4438 15.3883 36.1446L10.0694 34.0238C8.85255 33.5385 8.37473 32.0679 9.07398 30.9602L12.1304 26.118C12.5615 25.435 12.5615 24.565 12.1304 23.882L9.07398 19.0398C8.37473 17.9321 8.85255 16.4615 10.0694 15.9762L15.3883 13.8554C16.1385 13.5562 16.6499 12.8524 16.7026 12.0464L17.076 6.3325C17.1614 5.02527 18.4124 4.11639 19.682 4.4391L25.2317 5.84964C26.0145 6.0486 26.8419 5.77975 27.3583 5.15867L31.0189 0.755514Z" fill="#FF5724"/>
<path d="M40.8925 19.6431L28.6158 32.1431L23.0354 26.4612" stroke="white" stroke-width="3" stroke-linecap="round" stroke-linejoin="round"/>
</svg>
