<svg width="20" height="20" viewBox="0 0 20 20" fill="none" xmlns="http://www.w3.org/2000/svg">
<path d="M10.0013 14.3962L6.54292 16.4795C6.39014 16.5767 6.23042 16.6184 6.06375 16.6045C5.89708 16.5906 5.75125 16.535 5.62625 16.4378C5.50125 16.3406 5.40403 16.2192 5.33458 16.0737C5.26514 15.9281 5.25125 15.7648 5.29292 15.5837L6.20958 11.6462L3.14708 9.00033C3.0082 8.87533 2.92153 8.73283 2.88708 8.57283C2.85264 8.41283 2.86292 8.25672 2.91792 8.10449C2.97292 7.95227 3.05625 7.82727 3.16792 7.72949C3.27958 7.63171 3.43236 7.56921 3.62625 7.54199L7.66792 7.18783L9.23042 3.47949C9.29986 3.31283 9.40764 3.18783 9.55375 3.10449C9.69986 3.02116 9.84903 2.97949 10.0013 2.97949C10.1535 2.97949 10.3026 3.02116 10.4488 3.10449C10.5949 3.18783 10.7026 3.31283 10.7721 3.47949L12.3346 7.18783L16.3763 7.54199C16.5707 7.56977 16.7235 7.63227 16.8346 7.72949C16.9457 7.82671 17.029 7.95172 17.0846 8.10449C17.1401 8.25727 17.1507 8.41366 17.1163 8.57366C17.0818 8.73366 16.9949 8.87588 16.8554 9.00033L13.7929 11.6462L14.7096 15.5837C14.7513 15.7642 14.7374 15.9275 14.6679 16.0737C14.5985 16.2198 14.5013 16.3412 14.3763 16.4378C14.2513 16.5345 14.1054 16.59 13.9388 16.6045C13.7721 16.6189 13.6124 16.5773 13.4596 16.4795L10.0013 14.3962Z" fill="#FF5724"/>
<rect x="12" y="1.5459" width="8" height="16" fill="white"/>
<path d="M10.001 3.47949C10.0574 3.47949 10.1224 3.49414 10.2012 3.53906C10.2438 3.56345 10.2804 3.59943 10.3105 3.67188L10.3115 3.67383L11.874 7.38184L11.9912 7.65918L12.291 7.68555L16.3096 8.03711C16.4353 8.05561 16.4869 8.08989 16.5049 8.10547C16.5463 8.14168 16.5845 8.19372 16.6143 8.27539C16.6374 8.33911 16.6427 8.40007 16.6279 8.46875C16.6188 8.51085 16.5943 8.56277 16.5225 8.62695L13.4658 11.2676L13.2373 11.4648L13.3057 11.7598L14.2227 15.6973C14.2425 15.7839 14.2308 15.8298 14.2168 15.8594C14.1802 15.9362 14.1316 15.9946 14.0703 16.042C14.0258 16.0764 13.9725 16.0998 13.8955 16.1064C13.8483 16.1105 13.7975 16.102 13.7295 16.0586L13.7178 16.0508L10.2588 13.9678L10.001 13.8125L9.74316 13.9678L6.28516 16.0508L6.27441 16.0576C6.20584 16.1013 6.15397 16.1104 6.10547 16.1064C6.02984 16.1001 5.97761 16.0772 5.93359 16.043C5.87119 15.9944 5.82272 15.935 5.78613 15.8584C5.77263 15.8301 5.76034 15.785 5.78027 15.6973L6.69629 11.7598L6.76465 11.4648L6.53613 11.2676L3.47949 8.62695C3.40892 8.56287 3.38518 8.51034 3.37598 8.46777C3.36104 8.39838 3.36497 8.33738 3.3877 8.27441C3.41661 8.19439 3.45472 8.14256 3.49707 8.10547C3.51515 8.08964 3.56574 8.05631 3.6875 8.03809L7.71191 7.68555L8.01172 7.65918L8.12891 7.38184L9.69141 3.67383L9.69238 3.67188C9.72261 3.59937 9.75901 3.56344 9.80176 3.53906C9.88034 3.49426 9.94461 3.47954 10.001 3.47949Z" stroke="#FF5724"/>
</svg>
