<svg width="20" height="24" viewBox="0 0 20 24" fill="none" xmlns="http://www.w3.org/2000/svg">
<path d="M0.837993 12.9975L0.237483 5.43048L0.0682432 3.31524C0.0437836 3.00561 -0.0200687 2.37559 0.00624164 2.0795C0.0481386 1.62139 0.229771 1.18724 0.526588 0.835786C0.936013 0.348138 1.52636 0.0481999 2.16164 0.00510539C2.58364 -0.0237634 3.00497 0.0702459 3.37465 0.275757C3.67036 0.437974 4.06027 0.726263 4.34812 0.924988L5.98894 2.05717L11.5083 5.85473L16.8319 9.51805L18.324 10.5452C18.597 10.7319 18.9908 10.9792 19.2314 11.1888C19.6857 11.5773 19.9619 12.1345 19.9958 12.7313C20.0138 13.0302 19.9748 13.4317 19.8541 13.7086C19.8051 13.8367 19.746 13.9605 19.6774 14.079C19.6079 14.1847 19.5502 14.2737 19.4709 14.3725C19.2738 14.6181 19.114 14.7264 18.8482 14.8988C18.1606 15.2263 17.8384 15.1932 17.089 15.2236L14.8241 15.3134C14.5939 15.3221 13.9336 15.3297 13.7291 15.3596C13.6061 15.3615 13.5066 15.3618 13.3843 15.3769C13.2303 15.3791 13.0486 15.3763 12.8982 15.3961C12.5484 15.3907 12.1916 15.4208 11.8416 15.4315C11.4361 15.444 11.0563 15.4622 10.6555 15.5262C10.1712 15.6732 9.83043 15.8548 9.49638 16.2444C9.3993 16.35 9.31475 16.4665 9.24398 16.5913C9.23146 16.6097 9.19989 16.653 9.19227 16.6708C9.10644 16.804 9.01463 16.9417 8.93588 17.0785C8.91392 17.1125 8.84135 17.2204 8.8281 17.2509C8.68657 17.4654 8.54866 17.6824 8.41457 17.9016C8.39625 17.9304 8.33328 18.025 8.32131 18.05C8.1883 18.2514 8.05947 18.4556 7.935 18.662L7.76099 18.9279C7.56484 19.2394 7.3168 19.6123 7.13589 19.9258C7.0526 20.046 6.97422 20.173 6.89601 20.2969C6.75611 20.5196 6.5547 20.8184 6.43023 21.0405C6.37761 21.1192 6.33116 21.1855 6.28815 21.2704C6.25792 21.3145 6.22726 21.3582 6.19848 21.4032C6.14824 21.4831 6.07439 21.5936 6.03089 21.6736C5.95312 21.789 5.86089 21.9267 5.79753 22.051C5.70042 22.1802 5.58788 22.3547 5.48591 22.4729C5.13571 22.8726 4.65515 23.1352 4.12962 23.2141C3.91465 23.2457 3.75586 23.2411 3.54271 23.2255C2.54918 23.0882 1.79014 22.4876 1.54935 21.4945L1.53389 21.4079C1.49869 21.2541 1.4759 21.0365 1.45531 20.8761C1.45725 20.6435 1.41227 20.2425 1.39245 19.9979L1.25959 18.3371C1.13196 16.6971 1.01805 14.9849 0.864304 13.3521C0.857027 13.2338 0.848245 13.1156 0.837993 12.9975Z" fill="#ECEFF2"/>
<path d="M2.15591 1.53924C2.33447 1.52106 2.5173 1.532 2.67052 1.63096C2.96358 1.82023 3.25902 2.03057 3.54633 2.22957L5.10918 3.30548L9.48783 6.3179L15.351 10.3527L17.2385 11.6502C17.5539 11.8671 17.8759 12.0865 18.1891 12.3067C18.2989 12.384 18.4139 12.5698 18.4464 12.7032C18.4952 12.911 18.4586 13.1296 18.3448 13.3103C18.2613 13.441 18.0768 13.6045 17.928 13.6248C17.3864 13.699 16.7529 13.6983 16.2089 13.7173L13.2573 13.8418C12.7367 13.8561 12.2163 13.8766 11.6963 13.9033C11.0931 13.9311 10.8175 13.9151 10.2167 14.055C8.63629 14.5137 8.18847 15.3812 7.38573 16.6556L5.30946 19.94C5.06216 20.331 4.81002 20.7182 4.57049 21.1142C4.44093 21.3285 4.30403 21.5531 4.06012 21.6496C3.86121 21.7267 3.63952 21.7195 3.44607 21.6297C3.16747 21.4998 3.03654 21.2499 3.01054 20.9538C2.96648 20.4517 2.9324 19.9482 2.89279 19.4457L2.59567 15.704L1.88253 6.70398C1.77003 5.28244 1.65543 3.86101 1.54469 2.43938C1.50702 1.95574 1.69709 1.68808 2.15591 1.53924Z" fill="#212730"/>
<path d="M0.864295 13.3519C0.854787 13.3742 0.861972 13.3604 0.837603 13.39L0.810005 13.3766C0.790118 13.3241 0.78413 13.2728 0.77464 13.2176L0.776799 13.239L0.760796 13.2552C0.76183 13.3626 0.747114 13.4659 0.707123 13.5658L0.689068 13.5687C0.659855 13.4495 0.673917 12.7288 0.701189 12.5933C0.746279 12.7522 0.685311 12.8346 0.744954 12.9636C0.757946 12.9917 0.798446 12.9897 0.837984 12.9974C0.848236 13.1155 0.857019 13.2336 0.864295 13.3519Z" fill="black" fill-opacity="0.0352941"/>
</svg>
