<svg width="22" height="22" viewBox="0 0 22 22" fill="none" xmlns="http://www.w3.org/2000/svg">
<path d="M9.95349 3.21873C10.2835 2.20573 11.7165 2.20573 12.0455 3.21873L13.2225 6.83973C13.2945 7.06073 13.4335 7.25273 13.6215 7.38973C13.8095 7.52573 14.0355 7.59973 14.2675 7.59973H18.0765C19.1415 7.59973 19.5845 8.96373 18.7225 9.59073L15.6425 11.8277C15.4545 11.9637 15.3145 12.1567 15.2425 12.3777C15.1705 12.5987 15.1705 12.8367 15.2415 13.0577L16.4185 16.6787C16.7485 17.6927 15.5885 18.5357 14.7245 17.9087L11.6445 15.6717C11.4565 15.5357 11.2305 15.4627 10.9985 15.4627C10.7665 15.4627 10.5405 15.5357 10.3525 15.6717L7.27249 17.9087C6.41049 18.5357 5.25149 17.6927 5.58049 16.6797L6.75749 13.0587C6.82849 12.8377 6.82849 12.5997 6.75649 12.3787C6.68449 12.1577 6.54449 11.9647 6.35649 11.8287L3.27749 9.59173C2.41549 8.96473 2.85949 7.60073 3.92449 7.60073H7.73149C7.96349 7.60073 8.18949 7.52773 8.37749 7.39073C8.56549 7.25473 8.70549 7.06273 8.77749 6.84173L9.95449 3.22073L9.95349 3.21873Z" fill="#FDA47D"/>
</svg>
