<svg width="18" height="18" viewBox="0 0 18 18" fill="none" xmlns="http://www.w3.org/2000/svg">
<mask id="mask0_590_5168" style="mask-type:alpha" maskUnits="userSpaceOnUse" x="0" y="0" width="18" height="18">
<rect width="18" height="18" fill="#D9D9D9"/>
</mask>
<g mask="url(#mask0_590_5168)">
<path d="M4.46248 15.75C4.22498 15.75 4.03748 15.6531 3.89998 15.4594C3.76248 15.2656 3.72498 15.0562 3.78748 14.8312L7.12498 2.775C7.17498 2.6125 7.26248 2.48438 7.38748 2.39062C7.51248 2.29688 7.65623 2.25 7.81873 2.25C8.06873 2.25 8.26248 2.34688 8.39998 2.54063C8.53748 2.73438 8.57498 2.94375 8.51248 3.16875L8.13748 4.5H12.3562L12.825 2.775C12.875 2.6125 12.9656 2.48438 13.0969 2.39062C13.2281 2.29688 13.375 2.25 13.5375 2.25C13.775 2.25 13.9625 2.34688 14.1 2.54063C14.2375 2.73438 14.275 2.94375 14.2125 3.16875L10.875 15.225C10.825 15.3875 10.7375 15.5156 10.6125 15.6094C10.4875 15.7031 10.3437 15.75 10.1812 15.75C9.93123 15.75 9.73748 15.6531 9.59998 15.4594C9.46248 15.2656 9.42498 15.0562 9.48748 14.8312L9.86248 13.5H5.64373L5.17498 15.225C5.12498 15.3875 5.03435 15.5156 4.9031 15.6094C4.77185 15.7031 4.62498 15.75 4.46248 15.75ZM7.10623 8.25H11.3062L11.925 6H7.72498L7.10623 8.25ZM6.07498 12H10.275L10.8937 9.75H6.69373L6.07498 12Z" fill="#212730"/>
</g>
</svg>
