<svg width="18" height="18" viewBox="0 0 18 18" fill="none" xmlns="http://www.w3.org/2000/svg">
<mask id="mask0_173_2857" style="mask-type:alpha" maskUnits="userSpaceOnUse" x="0" y="0" width="18" height="18">
<rect width="18" height="18" fill="#D9D9D9"/>
</mask>
<g mask="url(#mask0_173_2857)">
<path d="M2.02502 13.2191C1.87502 13.0691 1.80315 12.891 1.8094 12.6848C1.81565 12.4785 1.88752 12.3066 2.02502 12.1691L5.98127 8.15664C6.26877 7.86914 6.62502 7.72539 7.05002 7.72539C7.47502 7.72539 7.83127 7.86914 8.11877 8.15664L10.05 10.1066L13.95 6.24414H12.75C12.5375 6.24414 12.3594 6.17227 12.2156 6.02852C12.0719 5.88477 12 5.70664 12 5.49414C12 5.28164 12.0719 5.10352 12.2156 4.95977C12.3594 4.81602 12.5375 4.74414 12.75 4.74414H15.75C15.9625 4.74414 16.1406 4.81602 16.2844 4.95977C16.4281 5.10352 16.5 5.28164 16.5 5.49414V8.49414C16.5 8.70664 16.4281 8.88477 16.2844 9.02852C16.1406 9.17227 15.9625 9.24414 15.75 9.24414C15.5375 9.24414 15.3594 9.17227 15.2156 9.02852C15.0719 8.88477 15 8.70664 15 8.49414V7.29414L11.1188 11.1754C10.8313 11.4629 10.475 11.6066 10.05 11.6066C9.62502 11.6066 9.26877 11.4629 8.98127 11.1754L7.05002 9.24414L3.07502 13.2191C2.93752 13.3566 2.76252 13.4254 2.55002 13.4254C2.33752 13.4254 2.16252 13.3566 2.02502 13.2191Z" fill="#212730"/>
</g>
</svg>
