<svg width="37" height="36" viewBox="0 0 37 36" fill="none" xmlns="http://www.w3.org/2000/svg">
<path d="M0 13.2241C1.22927 13.2797 2.26969 13.7429 3.12083 14.6132C3.97196 15.484 4.40684 16.5211 4.40684 17.7248C4.40684 16.5211 4.8231 15.484 5.67423 14.6132C6.52537 13.7429 7.56579 13.2797 8.79506 13.2241C7.56579 13.1686 6.52537 12.7058 5.67423 11.8351C4.8231 10.9647 4.40684 9.92767 4.40684 8.72349C4.40684 9.92767 3.99103 10.9647 3.12083 11.8351C2.26969 12.7058 1.22927 13.1686 0 13.2241ZM4.40684 26.5594C6.79001 26.6705 8.81412 27.5782 10.4783 29.282C12.1429 30.9863 12.9749 33.0048 12.9749 35.3571C12.9749 33.0048 13.8074 30.9863 15.4716 29.282C17.1362 27.5782 19.1598 26.6892 21.5621 26.5594C19.9924 26.4856 18.5547 26.0593 17.2306 25.2446C15.9255 24.448 14.8856 23.3741 14.1098 22.0405C13.3535 20.707 12.9749 19.2806 12.9749 17.7248C12.9749 20.0771 12.1429 22.1143 10.4783 23.8186C8.81412 25.541 6.79001 26.4483 4.40684 26.5594ZM10.6866 6.61207C12.4833 6.68631 14.0154 7.37174 15.2637 8.6497C16.512 9.92767 17.1362 11.4461 17.1362 13.2241C17.1362 11.4461 17.7603 9.92767 19.0087 8.6497C20.257 7.37174 21.77 6.68631 23.5671 6.61207C21.77 6.53828 20.257 5.85285 19.0087 4.57489C17.7603 3.29692 17.1362 1.77804 17.1362 0C17.1362 1.77804 16.512 3.29692 15.2637 4.57489C13.9963 5.85285 12.4833 6.51962 10.6866 6.61207ZM23.5671 15.3911C25.3638 15.4654 26.8768 16.1508 28.1251 17.4288C29.3735 18.7067 29.979 20.2252 29.979 22.0219C29.979 20.2438 30.6032 18.7249 31.8515 17.447C33.0998 16.169 34.6319 15.484 36.4286 15.4098C34.6319 15.3356 33.0998 14.6506 31.8515 13.3726C30.6032 12.0946 29.979 10.5758 29.979 8.79772C29.979 10.5758 29.3548 12.0946 28.1251 13.3726C26.8768 14.6319 25.3638 15.3173 23.5671 15.3911Z" fill="#FF5724"/>
</svg>
