<svg width="103" height="103" viewBox="0 0 103 103" fill="none" xmlns="http://www.w3.org/2000/svg">
<path d="M49.347 101.313H50.1066C50.1358 101.475 50.1902 101.618 50.2697 101.741C50.3493 101.864 50.4467 101.968 50.5619 102.054C50.6771 102.14 50.8062 102.205 50.949 102.249C51.0902 102.293 51.2404 102.314 51.3994 102.314C51.6867 102.314 51.944 102.242 52.1712 102.098C52.3968 101.954 52.5754 101.742 52.7069 101.464C52.8367 101.185 52.9016 100.844 52.9016 100.442C52.9016 100.037 52.8367 99.6953 52.7069 99.4166C52.5754 99.1378 52.396 98.9271 52.1688 98.7845C51.9416 98.6419 51.6859 98.5706 51.4019 98.5706C51.2444 98.5706 51.0951 98.5916 50.9539 98.6338C50.8111 98.6775 50.682 98.7415 50.5668 98.8258C50.4515 98.9101 50.3541 99.013 50.2746 99.1346C50.1935 99.2577 50.1375 99.3988 50.1066 99.5576L49.347 99.5551C49.3876 99.3104 49.4663 99.0851 49.5832 98.8793C49.6984 98.6751 49.8469 98.4984 50.0287 98.3493C50.2089 98.2018 50.415 98.0876 50.6471 98.0065C50.8792 97.9255 51.1324 97.885 51.4067 97.885C51.8385 97.885 52.2232 97.9871 52.5608 98.1913C52.8984 98.3971 53.1646 98.6913 53.3594 99.0738C53.5525 99.4563 53.6491 99.9125 53.6491 100.442C53.6491 100.974 53.5517 101.43 53.3569 101.811C53.1622 102.194 52.896 102.487 52.5583 102.691C52.2207 102.897 51.8369 103 51.4067 103C51.1422 103 50.8955 102.962 50.6666 102.886C50.4361 102.811 50.2292 102.701 50.0457 102.555C49.8623 102.411 49.7106 102.234 49.5905 102.025C49.4703 101.818 49.3892 101.58 49.347 101.313Z" fill="#200801"/>
<path d="M43.2023 99.7503C43.2641 99.2223 43.414 98.7796 43.6519 98.4223C43.8897 98.0666 44.189 97.8061 44.5498 97.641C44.9089 97.4773 45.302 97.4204 45.7293 97.4703C46.1581 97.5203 46.5291 97.6664 46.8423 97.9086C47.1537 98.1522 47.3839 98.4752 47.5329 98.8777C47.6819 99.2802 47.7256 99.7446 47.6639 100.271C47.6021 100.799 47.4524 101.241 47.2146 101.597C46.9767 101.954 46.6782 102.214 46.3191 102.378C45.9583 102.543 45.5634 102.601 45.1346 102.551C44.7074 102.501 44.338 102.354 44.0266 102.111C43.7135 101.868 43.4824 101.546 43.3334 101.144C43.1842 100.743 43.1405 100.278 43.2023 99.7503ZM43.9423 99.8366C43.8952 100.239 43.9208 100.586 44.0192 100.876C44.1157 101.168 44.2686 101.398 44.4777 101.566C44.685 101.735 44.9305 101.837 45.2143 101.87C45.4996 101.903 45.7627 101.861 46.0036 101.744C46.2443 101.629 46.4461 101.44 46.6091 101.178C46.7703 100.918 46.8744 100.587 46.9216 100.184C46.9687 99.7819 46.9439 99.4347 46.8474 99.1428C46.749 98.8523 46.5962 98.6223 46.3888 98.4529C46.1813 98.2851 45.9349 98.1845 45.6496 98.1512C45.3658 98.1181 45.1036 98.1593 44.8629 98.2748C44.6205 98.3917 44.4186 98.5803 44.2574 98.8405C44.0945 99.1021 43.9894 99.4342 43.9423 99.8366Z" fill="#200801"/>
<path d="M37.2993 100.942L38.4493 96.0976L39.1221 96.2568L40.7449 100.393L40.7899 100.404L41.6333 96.8511L42.3653 97.0243L41.2154 101.869L40.5379 101.709L38.9138 97.5666L38.8687 97.556L38.0243 101.114L37.2993 100.942Z" fill="#200801"/>
<path d="M35.902 99.8244L35.6805 100.432L32.0542 99.1142L32.2757 98.5066L33.7377 99.0379L35.2216 94.9669L35.9262 95.223L34.4423 99.294L35.902 99.8244Z" fill="#200801"/>
<path d="M32.0943 93.7015L29.8565 98.1508L28.2683 97.3543C27.923 97.1812 27.6664 96.9782 27.4984 96.7452C27.329 96.5115 27.2405 96.2613 27.233 95.9945C27.2248 95.7292 27.2895 95.4597 27.4272 95.186C27.5641 94.9137 27.742 94.7027 27.9607 94.5531C28.1773 94.4042 28.429 94.33 28.7157 94.3305C29.001 94.3302 29.3162 94.4167 29.6614 94.5898L30.8646 95.1932L30.5739 95.7711L29.4317 95.1982C29.2141 95.0891 29.0215 95.0315 28.8538 95.0254C28.6847 95.0186 28.5384 95.0586 28.4148 95.1453C28.2913 95.2321 28.1876 95.3588 28.1038 95.5253C28.0193 95.6933 27.9787 95.8552 27.9821 96.0111C27.984 96.1662 28.0375 96.3109 28.1425 96.4452C28.2453 96.5802 28.4077 96.7033 28.6296 96.8146L29.4738 97.2379L31.4221 93.3644L32.0943 93.7015ZM28.8851 94.6058L28.7938 92.0464L29.5596 92.4304L29.6292 94.979L28.8851 94.6058Z" fill="#200801"/>
<path d="M26.832 90.8516L27.4992 91.2898L23.26 94.465L22.5338 93.9881L23.7747 88.8437L24.4419 89.2819L23.3773 93.4596L23.4099 93.481L26.832 90.8516ZM25.6471 92.4071L23.4828 90.9857L23.8306 90.4576L25.995 91.879L25.6471 92.4071Z" fill="#200801"/>
<path d="M20.2855 91.5948L19.8692 92.0902L16.913 89.6134L17.3293 89.118L18.5211 90.1165L21.3099 86.7979L21.8843 87.2792L19.0955 90.5978L20.2855 91.5948Z" fill="#200801"/>
<path d="M14.0698 83.1571C14.457 82.7923 14.8568 82.5494 15.2691 82.4283C15.6802 82.3084 16.0771 82.3011 16.4598 82.4062C16.8403 82.5113 17.1781 82.72 17.4732 83.0324C17.7695 83.346 17.9597 83.696 18.0437 84.0826C18.1255 84.469 18.0939 84.8642 17.9489 85.2682C17.8039 85.6721 17.5384 86.0559 17.1524 86.4196C16.7651 86.7844 16.3659 87.0268 15.9548 87.1467C15.5425 87.2677 15.1462 87.2757 14.7657 87.1706C14.383 87.0655 14.0435 86.8561 13.7472 86.5425C13.452 86.2301 13.2636 85.8807 13.1818 85.4942C13.0978 85.1077 13.1282 84.7125 13.2732 84.3085C13.417 83.9057 13.6825 83.5219 14.0698 83.1571ZM14.581 83.6982C14.2859 83.9762 14.0824 84.2581 13.9708 84.5438C13.8568 84.8294 13.8259 85.1036 13.8779 85.3666C13.9277 85.6294 14.0506 85.8646 14.2466 86.0721C14.4438 86.2807 14.6723 86.4175 14.9322 86.4824C15.1909 86.5484 15.4669 86.5334 15.7602 86.4376C16.0512 86.3418 16.3443 86.1548 16.6394 85.8767C16.9346 85.5987 17.1391 85.3169 17.2531 85.0312C17.3648 84.7456 17.3957 84.4713 17.346 84.2085C17.295 83.9467 17.171 83.7115 16.9738 83.5029C16.7778 83.2954 16.5504 83.1586 16.2917 83.0927C16.0307 83.0266 15.7547 83.0415 15.4637 83.1374C15.1704 83.2332 14.8762 83.4201 14.581 83.6982Z" fill="#200801"/>
<path d="M10.6083 80.5426C10.4389 80.7009 10.3597 80.8932 10.3706 81.1194C10.3801 81.3467 10.4702 81.5747 10.6408 81.8035C10.7629 81.9673 10.8946 82.0897 11.0359 82.1706C11.1758 82.2524 11.3154 82.2931 11.4547 82.2926C11.5917 82.2918 11.7168 82.2493 11.8301 82.1651C11.9251 82.0945 11.9907 82.0114 12.0267 81.9159C12.0618 81.8191 12.0757 81.7169 12.0682 81.6092C12.0586 81.5013 12.0379 81.3934 12.0061 81.2857C11.973 81.1789 11.9372 81.0793 11.8986 80.9868L11.7093 80.5213C11.6456 80.3706 11.5905 80.2085 11.544 80.035C11.4976 79.8614 11.4753 79.685 11.4773 79.5057C11.4792 79.3265 11.5184 79.1538 11.595 78.9878C11.6706 78.8205 11.7982 78.6701 11.9779 78.5365C12.2044 78.3681 12.4492 78.2771 12.7122 78.2634C12.9742 78.2485 13.2384 78.3137 13.5047 78.4592C13.7701 78.6035 14.0191 78.8316 14.2517 79.1436C14.4746 79.4426 14.62 79.7366 14.6878 80.0257C14.7556 80.3147 14.7483 80.5858 14.6659 80.839C14.5822 81.0932 14.4248 81.3163 14.1936 81.5083L13.7429 80.9038C13.8787 80.7847 13.9642 80.6484 13.9995 80.4949C14.0325 80.341 14.0245 80.1823 13.9754 80.0188C13.924 79.8549 13.8407 79.6956 13.7254 79.5409C13.5984 79.3706 13.4588 79.239 13.3065 79.1461C13.152 79.0528 12.998 79.0036 12.8445 78.9986C12.6896 78.9944 12.5471 79.0408 12.4169 79.1376C12.2984 79.2256 12.2266 79.3315 12.2015 79.4553C12.1754 79.5777 12.1803 79.7145 12.2161 79.8657C12.251 80.0156 12.3029 80.176 12.3717 80.3471L12.5947 80.9148C12.7459 81.2995 12.8066 81.6483 12.777 81.9613C12.7463 82.2731 12.5917 82.5325 12.3131 82.7396C12.0826 82.9109 11.8349 82.998 11.57 83.001C11.3051 83.0039 11.0457 82.9341 10.7917 82.7916C10.5364 82.65 10.3089 82.4453 10.1092 82.1775C9.90761 81.9071 9.77727 81.6332 9.71819 81.3559C9.65815 81.0772 9.66687 80.8161 9.74435 80.5727C9.82053 80.3301 9.96408 80.1264 10.175 79.9615L10.6083 80.5426Z" fill="#200801"/>
<path d="M9.39738 71.262L4.81893 73.234L3.58072 70.3678L4.17539 70.1117L5.11561 72.2881L6.51061 71.6873L5.63499 69.6604L6.22742 69.4052L7.10304 71.4321L8.50474 70.8284L7.55294 68.6251L8.14761 68.369L9.39738 71.262Z" fill="#200801"/>
<path d="M5.95547 60.0734L1.04498 60.9379L0.508048 57.8974L1.14584 57.7851L1.55213 60.0858L3.0483 59.8224L2.68048 57.7395L3.31587 57.6276L3.68369 59.7105L5.82484 59.3336L5.95547 60.0734Z" fill="#200801"/>
<path d="M0.0747693 53.8766L5.05258 53.5871L5.09633 54.3371L0.118513 54.6266L0.0747693 53.8766Z" fill="#200801"/>
<path d="M0.234006 47.0627L5.21182 47.3522L5.17161 48.0415L1.37353 50.3556L1.37084 50.4018L5.02156 50.6141L4.97781 51.364L0 51.0745L0.0404875 50.3804L3.84358 48.0641L3.84627 48.018L0.190688 47.8054L0.234006 47.0627Z" fill="#200801"/>
<path d="M5.05716 45.1819L4.91849 45.9671L0.319584 43.3381L0.470517 42.4834L5.6926 41.5835L5.55393 42.3687L1.29059 43.0474L1.28383 43.0857L5.05716 45.1819ZM3.15746 44.7116L3.6073 42.1642L4.2307 42.274L3.78086 44.8214L3.15746 44.7116Z" fill="#200801"/>
<path d="M2.84882 34.4969L7.6256 35.9248L7.42729 36.5862L3.1971 37.9634L3.18384 38.0077L6.68711 39.0549L6.47135 39.7746L1.69457 38.3466L1.89428 37.6805L6.12983 36.3024L6.1431 36.2582L2.63515 35.2095L2.84882 34.4969Z" fill="#200801"/>
<path d="M6.522 28.5382L6.22113 29.2347C6.06052 29.1973 5.90783 29.1907 5.76305 29.2148C5.61828 29.2389 5.48358 29.2868 5.35895 29.3585C5.23431 29.4301 5.12359 29.5227 5.02677 29.6364C4.9306 29.7485 4.85101 29.8775 4.78801 30.0233C4.67422 30.2867 4.63864 30.5512 4.68128 30.8167C4.72457 31.0806 4.84834 31.3281 5.05261 31.5591C5.25753 31.7885 5.54479 31.9829 5.91441 32.1421C6.287 32.3026 6.62719 32.3785 6.93497 32.3698C7.24339 32.3597 7.50818 32.2787 7.72933 32.1269C7.95049 31.975 8.11732 31.7689 8.22983 31.5084C8.29219 31.3641 8.33196 31.2188 8.34914 31.0727C8.36547 30.9244 8.35771 30.7807 8.32586 30.6417C8.294 30.5026 8.23794 30.3726 8.15766 30.2515C8.07654 30.1283 7.96905 30.0211 7.83521 29.9299L8.13832 29.2344C8.34729 29.3686 8.52328 29.53 8.66627 29.7186C8.80841 29.9052 8.91204 30.1113 8.97715 30.3371C9.04141 30.5607 9.06484 30.7949 9.04742 31.0398C9.03001 31.2847 8.96698 31.5329 8.85833 31.7844C8.68732 32.1803 8.44106 32.4925 8.11955 32.7212C7.79656 32.9492 7.42062 33.0768 6.99174 33.1039C6.56351 33.1294 6.10571 33.0373 5.61836 32.8274C5.12951 32.6168 4.74854 32.3468 4.47545 32.0174C4.20087 31.6873 4.03654 31.3271 3.98247 30.9366C3.92692 30.5456 3.98432 30.1529 4.15469 29.7585C4.25948 29.5159 4.39222 29.3048 4.55291 29.1251C4.71276 28.9433 4.89608 28.7973 5.10286 28.6869C5.30815 28.5758 5.53071 28.5067 5.77054 28.4793C6.00888 28.4514 6.25937 28.471 6.522 28.5382Z" fill="#200801"/>
<path d="M6.81927 25.3615L11.1375 27.8509L10.7613 28.5015L6.44311 26.012L6.81927 25.3615Z" fill="#200801"/>
<path d="M12.8816 25.5214L12.4047 26.161L9.47662 21.7506L9.99566 21.0545L15.0668 22.5905L14.5899 23.2301L10.475 21.926L10.4517 21.9572L12.8816 25.5214ZM11.3953 24.2498L12.9422 22.175L13.45 22.5525L11.903 24.6273L11.3953 24.2498Z" fill="#200801"/>
<path d="M11.8576 18.2721L12.4842 17.609L16.3928 19.112L16.4329 19.0696L14.703 15.2607L15.3295 14.5975L18.9564 18.0143L18.4652 18.5341L15.8407 16.0617L15.8089 16.0953L17.419 19.6308L17.0113 20.0623L13.3812 18.6612L13.3494 18.6948L15.9757 21.1689L15.4845 21.6888L11.8576 18.2721Z" fill="#200801"/>
<path d="M20.4324 16.9221L17.2273 13.1081L19.622 11.1016L20.0383 11.597L18.2199 13.1206L19.1964 14.2827L20.8899 12.8638L21.3047 13.3573L19.6112 14.7762L20.5924 15.9439L22.4332 14.4015L22.8495 14.8969L20.4324 16.9221Z" fill="#200801"/>
<path d="M25.1635 7.26974L27.9034 11.4295L27.3257 11.8089L23.1987 10.1488L23.16 10.1742L25.1695 13.225L24.541 13.6378L21.801 9.47799L22.3828 9.09592L26.5145 10.7587L26.5532 10.7334L24.541 7.67853L25.1635 7.26974Z" fill="#200801"/>
<path d="M26.9366 7.02188L26.646 6.444L30.0945 4.71465L30.3852 5.29254L28.9949 5.98973L30.942 9.86112L30.2719 10.1972L28.3247 6.32578L26.9366 7.02188Z" fill="#200801"/>
<path d="M37.1577 4.66501C37.3398 5.16455 37.4049 5.62729 37.3528 6.05323C37.3003 6.47765 37.1498 6.84449 36.9016 7.15377C36.6543 7.46096 36.3285 7.68801 35.9243 7.8349C35.5186 7.98235 35.1214 8.01805 34.7327 7.94201C34.3449 7.86389 33.994 7.67838 33.68 7.38547C33.3659 7.09257 33.1182 6.69711 32.9366 6.19909C32.7545 5.69955 32.6898 5.23757 32.7424 4.81315C32.7944 4.38721 32.944 4.02064 33.1913 3.71345C33.4396 3.40418 33.7666 3.17582 34.1723 3.02837C34.5765 2.88147 34.9725 2.84708 35.3602 2.9252C35.7489 3.00125 36.1003 3.18572 36.4144 3.47863C36.7279 3.77001 36.9756 4.16547 37.1577 4.66501ZM36.4576 4.91944C36.3189 4.5387 36.1402 4.24056 35.9218 4.02503C35.7043 3.80742 35.4643 3.67041 35.2019 3.61399C34.9405 3.5555 34.6756 3.57503 34.4071 3.67259C34.1372 3.7707 33.9209 3.92606 33.7583 4.13865C33.5951 4.34973 33.4995 4.60869 33.4715 4.91554C33.4444 5.22032 33.5002 5.56308 33.639 5.94383C33.7778 6.32457 33.9559 6.62375 34.1734 6.84136C34.3919 7.05689 34.6319 7.1939 34.8933 7.25239C35.1541 7.30936 35.4195 7.28879 35.6895 7.19068C35.958 7.09312 36.1738 6.9388 36.3369 6.72773C36.501 6.51458 36.5966 6.25562 36.6237 5.95084C36.6518 5.64399 36.5964 5.30019 36.4576 4.91944Z" fill="#200801"/>
<path d="M40.9329 2.52685C40.8545 2.30889 40.7091 2.16009 40.4967 2.08044C40.2839 1.99921 40.0385 1.99148 39.7605 2.05727C39.5615 2.10436 39.3969 2.17664 39.2665 2.27411C39.1358 2.37 39.0431 2.48188 38.9884 2.60976C38.9349 2.73569 38.9244 2.86725 38.957 3.00446C38.9843 3.11958 39.0347 3.21258 39.1083 3.28345C39.1834 3.35396 39.2719 3.40713 39.3738 3.44297C39.477 3.47686 39.5843 3.50058 39.696 3.51414C39.8073 3.52612 39.9131 3.53272 40.0134 3.53395L40.5165 3.54483C40.6802 3.54605 40.8511 3.55974 41.0291 3.5859C41.2072 3.61206 41.3782 3.66153 41.5423 3.7343C41.7063 3.80707 41.8495 3.91142 41.9719 4.04737C42.0958 4.18294 42.1836 4.35954 42.2352 4.57717C42.3004 4.85157 42.2871 5.11204 42.1955 5.35858C42.1055 5.60475 41.9408 5.82111 41.7015 6.00765C41.4638 6.19383 41.1554 6.33177 40.7764 6.42147C40.4131 6.50744 40.0852 6.52426 39.7925 6.47192C39.4998 6.41959 39.2534 6.30552 39.0532 6.1297C38.8526 5.95231 38.7098 5.71961 38.6248 5.43159L39.3592 5.25779C39.415 5.42948 39.5065 5.5619 39.6337 5.65506C39.7621 5.74626 39.9112 5.80174 40.081 5.82152C40.252 5.83933 40.4315 5.82601 40.6195 5.78153C40.8264 5.73256 41.0027 5.65669 41.1485 5.55391C41.2954 5.44918 41.4016 5.32743 41.4671 5.18868C41.5322 5.04835 41.5461 4.89933 41.5086 4.74163C41.4746 4.59812 41.4056 4.49035 41.3018 4.41831C41.1995 4.34591 41.0718 4.29619 40.9186 4.26915C40.7669 4.24174 40.5988 4.22573 40.4143 4.22111L39.8039 4.20066C39.3903 4.18694 39.0454 4.10449 38.7693 3.95329C38.4948 3.80173 38.3175 3.5572 38.2374 3.21972C38.1712 2.94058 38.1891 2.67899 38.2913 2.43494C38.3936 2.19089 38.5605 1.98065 38.7922 1.80423C39.0235 1.62623 39.3019 1.49873 39.6272 1.42174C39.9557 1.344 40.2592 1.33297 40.5376 1.38867C40.8177 1.44399 41.0543 1.55539 41.2475 1.72286C41.4403 1.88876 41.5708 2.10106 41.6389 2.35978L40.9329 2.52685Z" fill="#200801"/>
<path d="M53.1648 1.64098C53.1178 1.4935 53.0545 1.36141 52.9749 1.24472C52.897 1.1264 52.8037 1.02592 52.695 0.943262C52.5862 0.858984 52.462 0.794965 52.3224 0.751206C52.1845 0.707446 52.0327 0.685567 51.8672 0.685567C51.5864 0.685567 51.3332 0.757689 51.1075 0.901933C50.8819 1.04618 50.7034 1.25768 50.5719 1.53645C50.4421 1.81359 50.3771 2.15313 50.3771 2.55507C50.3771 2.95863 50.4429 3.2998 50.5743 3.57856C50.7058 3.85732 50.886 4.06883 51.1148 4.21307C51.3437 4.35732 51.6042 4.42944 51.8964 4.42944C52.1674 4.42944 52.4036 4.37434 52.6049 4.26413C52.8078 4.15392 52.9644 3.99833 53.0748 3.79736C53.1868 3.59477 53.2428 3.35652 53.2428 3.08262L53.4375 3.11908H52.0108V2.49916H53.9707V3.0656C53.9707 3.48375 53.8815 3.84679 53.7029 4.15473C53.526 4.46104 53.2809 4.69767 52.9676 4.8646C52.656 5.03154 52.2989 5.11501 51.8964 5.11501C51.4451 5.11501 51.0491 5.01128 50.7082 4.80383C50.369 4.59637 50.1044 4.30221 49.9145 3.92134C49.7246 3.53885 49.6297 3.08505 49.6297 2.55993C49.6297 2.16286 49.6849 1.8063 49.7952 1.49026C49.9056 1.17421 50.0606 0.905985 50.2603 0.685567C50.4615 0.463527 50.6977 0.294162 50.9688 0.177469C51.2414 0.0591565 51.5393 0 51.8623 0C52.1317 0 52.3825 0.0397077 52.6146 0.119123C52.8483 0.198539 53.0561 0.311179 53.2379 0.457044C53.4213 0.60291 53.5731 0.776327 53.6932 0.977297C53.8133 1.17665 53.8944 1.39787 53.9366 1.64098H53.1648Z" fill="#200801"/>
<path d="M55.7864 5.28103L54.9932 5.18846L57.3543 0.451261L58.2176 0.552017L59.421 5.70522L58.6278 5.61265L57.7014 1.40229L57.6627 1.39777L55.7864 5.28103ZM56.1461 3.36L58.7191 3.6603L58.6456 4.28811L56.0726 3.98781L56.1461 3.36Z" fill="#200801"/>
<path d="M60.5641 5.96057L61.714 1.11591L63.4434 1.52518C63.8193 1.61414 64.1159 1.75262 64.3331 1.94061C64.552 2.12899 64.6959 2.35208 64.7648 2.60991C64.8341 2.86616 64.8333 3.14331 64.7626 3.44137C64.6922 3.73785 64.5679 3.98409 64.3896 4.18008C64.2132 4.37486 63.9855 4.50502 63.7064 4.57055C63.4289 4.63646 63.1022 4.62493 62.7263 4.53598L61.4162 4.22594L61.5655 3.5967L62.8093 3.89104C63.0462 3.9471 63.2469 3.9588 63.4115 3.92612C63.5776 3.89381 63.7108 3.82123 63.811 3.70835C63.9112 3.59548 63.9828 3.44837 64.0258 3.26701C64.0692 3.08407 64.0713 2.91717 64.0321 2.7663C63.9944 2.61581 63.909 2.48732 63.7758 2.38085C63.6445 2.27317 63.4581 2.19074 63.2164 2.13355L62.2972 1.91602L61.2961 6.13381L60.5641 5.96057ZM63.478 4.34161L64.158 6.81107L63.324 6.61372L62.6678 4.14987L63.478 4.34161Z" fill="#200801"/>
<path d="M66.5713 7.75008L65.8209 7.47736L69.2125 3.41156L70.0292 3.7084L70.01 8.9998L69.2596 8.72707L69.3305 4.41687L69.2939 4.40356L66.5713 7.75008ZM67.365 5.96367L69.7993 6.84836L69.5828 7.44233L67.1485 6.55763L67.365 5.96367Z" fill="#200801"/>
<path d="M77.3543 7.09379L75.1165 11.5431L74.4986 11.2332L73.8749 6.8343L73.8336 6.81357L72.1923 10.0767L71.52 9.73952L73.7579 5.29025L74.3801 5.60229L75.0038 10.0066L75.0452 10.0274L76.6886 6.75992L77.3543 7.09379Z" fill="#200801"/>
<path d="M78.6844 8.50322L79.0403 7.96293L82.2644 10.0803L81.9086 10.6206L80.6087 9.76698L78.2246 13.3865L77.5981 12.975L79.9822 9.35553L78.6844 8.50322Z" fill="#200801"/>
<path d="M85.2844 12.3754L82.0793 16.1894L81.503 15.7066L84.7081 11.8925L85.2844 12.3754Z" fill="#200801"/>
<path d="M85.0506 19.4243L83.9428 18.2519L87.5697 14.8352L88.7125 16.0447C89.0478 16.3996 89.2631 16.7727 89.3585 17.1641C89.4551 17.5545 89.4322 17.9448 89.2899 18.335C89.15 18.7254 88.8917 19.0979 88.515 19.4527C88.1372 19.8086 87.7474 20.0455 87.3456 20.1634C86.9448 20.2824 86.5487 20.2813 86.1573 20.1598C85.767 20.0373 85.3981 19.7921 85.0506 19.4243ZM84.9373 18.3479L85.5003 18.9438C85.761 19.2196 86.0296 19.4 86.3061 19.4848C86.5838 19.5686 86.8647 19.5624 87.1489 19.4663C87.4342 19.3691 87.7202 19.1854 88.0071 18.9151C88.2917 18.6471 88.4902 18.3743 88.6028 18.0966C88.7165 17.8202 88.7406 17.5446 88.6751 17.2698C88.6096 16.995 88.4521 16.7256 88.2026 16.4616L87.6078 15.832L84.9373 18.3479Z" fill="#200801"/>
<path d="M92.288 24.3767C91.8609 24.6941 91.4356 24.889 91.0121 24.9615C90.5898 25.0329 90.1947 24.9942 89.8268 24.8454C89.4611 24.697 89.1499 24.4505 88.893 24.106C88.6352 23.7602 88.487 23.3904 88.4485 22.9968C88.4122 22.6035 88.4896 22.2146 88.6805 21.8302C88.8715 21.4458 89.1798 21.0953 89.6055 20.7789C90.0326 20.4614 90.4572 20.267 90.8795 20.1955C91.3031 20.1231 91.6977 20.1612 92.0633 20.3096C92.4313 20.4584 92.7441 20.7057 93.002 21.0515C93.2588 21.396 93.4054 21.7649 93.4416 22.1582C93.4802 22.5519 93.404 22.9409 93.213 23.3253C93.0234 23.7088 92.715 24.0592 92.288 24.3767ZM91.8431 23.78C92.1686 23.538 92.4034 23.2816 92.5475 23.0108C92.6939 22.7404 92.7565 22.4715 92.7354 22.2044C92.7166 21.9375 92.6218 21.6897 92.4512 21.4609C92.2797 21.2308 92.0686 21.0685 91.818 20.9739C91.5687 20.8784 91.2928 20.8612 90.9904 20.9223C90.6902 20.9838 90.3774 21.1356 90.0519 21.3775C89.7264 21.6195 89.4905 21.8757 89.3441 22.1462C89.1999 22.417 89.1373 22.6858 89.1562 22.9526C89.1763 23.2185 89.2722 23.4665 89.4437 23.6966C89.6143 23.9254 89.8243 24.0876 90.0736 24.1831C90.3251 24.279 90.601 24.2961 90.9012 24.2346C91.2036 24.1735 91.5176 24.0219 91.8431 23.78Z" fill="#200801"/>
<path d="M95.4221 27.3747C95.6087 27.2371 95.7097 27.0554 95.7253 26.8293C95.7422 26.6025 95.6792 26.3656 95.5364 26.1185C95.4341 25.9417 95.3175 25.8049 95.1866 25.7082C95.0571 25.6107 94.9232 25.5541 94.7848 25.5384C94.6487 25.5233 94.5194 25.551 94.3972 25.6215C94.2945 25.6807 94.2198 25.7556 94.1729 25.8463C94.1268 25.9383 94.1012 26.0383 94.096 26.146C94.0931 26.2544 94.1011 26.3639 94.1201 26.4746C94.1405 26.5845 94.1645 26.6876 94.1921 26.784L94.326 27.2683C94.3718 27.4253 94.4076 27.5927 94.4336 27.7705C94.4596 27.9483 94.4612 28.1261 94.4384 28.3039C94.4156 28.4817 94.3566 28.6486 94.2613 28.8046C94.1667 28.962 94.0225 29.0967 93.8285 29.2085C93.5839 29.3495 93.3302 29.4115 93.0674 29.3946C92.8054 29.3791 92.5506 29.2836 92.303 29.1082C92.0562 28.9342 91.8354 28.6788 91.6406 28.3419C91.454 28.0191 91.3438 27.7102 91.3101 27.4153C91.2763 27.1203 91.3151 26.8519 91.4264 26.6099C91.539 26.3672 91.7213 26.1638 91.9733 25.9999L92.3506 26.6526C92.2019 26.7551 92.1011 26.8806 92.0482 27.029C91.9975 27.178 91.9871 27.3366 92.0168 27.5047C92.0488 27.6734 92.113 27.8413 92.2096 28.0083C92.3159 28.1922 92.4393 28.3391 92.5797 28.449C92.7223 28.5596 92.8696 28.6263 93.0215 28.6491C93.1748 28.6711 93.3217 28.6416 93.4623 28.5606C93.5902 28.4869 93.6739 28.39 93.7132 28.27C93.7533 28.1514 93.7644 28.015 93.7464 27.8607C93.7292 27.7078 93.6963 27.5424 93.6478 27.3645L93.4924 26.7747C93.3869 26.3752 93.3671 26.0216 93.433 25.7142C93.4997 25.4081 93.6834 25.1684 93.9843 24.995C94.2331 24.8515 94.4892 24.7937 94.7526 24.8215C95.0161 24.8492 95.2657 24.9486 95.5014 25.1197C95.7385 25.2899 95.9407 25.5196 96.1078 25.8087C96.2767 26.1007 96.3743 26.3878 96.4007 26.6701C96.4279 26.9539 96.3889 27.2122 96.2837 27.445C96.1798 27.6771 96.0135 27.8627 95.7848 28.0021L95.4221 27.3747Z" fill="#200801"/>
<path d="M96.9593 38.2603C96.903 38.0724 96.8974 37.8871 96.9426 37.7044C96.9893 37.5213 97.0765 37.3599 97.2041 37.2202C97.3321 37.0821 97.4902 36.985 97.6783 36.9287C97.868 36.872 98.0536 36.8665 98.235 36.9121C98.4184 36.9587 98.5793 37.046 98.7176 37.1738C98.8574 37.3012 98.9555 37.4588 99.0118 37.6467C99.0686 37.8361 99.0734 38.0216 99.0262 38.2032C98.981 38.3859 98.8944 38.5463 98.7664 38.6844C98.6404 38.8236 98.4825 38.9215 98.2928 38.9782C98.1047 39.0345 97.9189 39.0392 97.7354 38.9926C97.5525 38.9475 97.3911 38.8612 97.2512 38.7338C97.1134 38.6075 97.0161 38.4497 96.9593 38.2603Z" fill="#200801"/>
<path d="M102.706 46.3343L102.759 47.2445L98.9817 49.0519L98.9851 49.1101L102.947 50.4675L103 51.3776L98.0222 51.6671L97.9806 50.9536L101.583 50.7441L101.58 50.698L97.8997 49.4411L97.8651 48.8489L101.377 47.1738L101.374 47.1277L97.7696 47.3374L97.728 46.6238L102.706 46.3343Z" fill="#200801"/>
<path d="M97.9429 52.6774L102.921 52.9669L102.739 56.0831L102.092 56.0455L102.23 53.6792L100.714 53.591L100.585 55.7947L99.9411 55.7572L100.07 53.5536L98.5457 53.4649L98.4059 55.8603L97.7594 55.8227L97.9429 52.6774Z" fill="#200801"/>
<path d="M101.728 62.7374L96.817 61.8729L96.9371 61.1929L100.979 59.3347L100.987 59.2892L97.3853 58.6551L97.5159 57.9153L102.426 58.7799L102.305 59.4646L98.2588 61.3244L98.2508 61.3699L101.857 62.0048L101.728 62.7374Z" fill="#200801"/>
<path d="M97.625 67.997C97.115 67.8445 96.7044 67.6202 96.3933 67.3242C96.0838 67.0287 95.8789 66.6891 95.7787 66.3056C95.6796 65.9241 95.6918 65.5276 95.8151 65.1162C95.939 64.7032 96.1475 64.3637 96.4407 64.0978C96.735 63.8338 97.0936 63.6636 97.5164 63.587C97.9392 63.5103 98.4049 63.548 98.9133 63.7C99.4234 63.8525 99.8331 64.0765 100.143 64.3721C100.454 64.6681 100.659 65.0068 100.758 65.3884C100.858 65.7719 100.846 66.1702 100.723 66.5832C100.599 66.9946 100.39 67.3323 100.096 67.5962C99.8028 67.8621 99.4448 68.0334 99.022 68.11C98.6007 68.1871 98.135 68.1494 97.625 67.997ZM97.8387 67.2843C98.2274 67.4005 98.5736 67.4355 98.8772 67.3892C99.1819 67.3449 99.4352 67.2346 99.6372 67.0581C99.8403 66.8837 99.9828 66.6598 100.065 66.3865C100.147 66.1117 100.152 65.8457 100.078 65.5885C100.006 65.3318 99.8548 65.1006 99.625 64.8949C99.3964 64.6912 99.0877 64.5312 98.699 64.415C98.3102 64.2988 97.9635 64.2628 97.6588 64.3071C97.3552 64.3534 97.1019 64.4637 96.8988 64.6382C96.6972 64.8131 96.5553 65.038 96.4729 65.3128C96.3909 65.586 96.386 65.851 96.4582 66.1078C96.5314 66.3665 96.6823 66.5977 96.911 66.8014C97.1407 67.0071 97.45 67.1681 97.8387 67.2843Z" fill="#200801"/>
<path d="M97.0882 72.2974C97.3102 72.3648 97.5165 72.3372 97.7074 72.2146C97.8997 72.0927 98.0524 71.9008 98.1656 71.6389C98.2466 71.4513 98.2868 71.2763 98.2864 71.1137C98.2874 70.9518 98.2529 70.8107 98.1828 70.6905C98.1136 70.5724 98.0142 70.4855 97.8845 70.4296C97.7757 70.3828 97.6709 70.3676 97.5701 70.3842C97.4686 70.4023 97.373 70.4414 97.2833 70.5016C97.1945 70.564 97.1113 70.6358 97.0338 70.7172C96.9577 70.7991 96.8892 70.88 96.8283 70.9596L96.5192 71.356C96.4204 71.4864 96.3074 71.6151 96.18 71.7421C96.0527 71.8691 95.9108 71.9765 95.7544 72.0645C95.598 72.1524 95.4286 72.2048 95.2464 72.2216C95.0635 72.2399 94.8692 72.2048 94.6635 72.1162C94.4042 72.0045 94.2028 71.8383 94.0595 71.6177C93.9155 71.3986 93.84 71.1375 93.8331 70.8345C93.8255 70.5329 93.8988 70.2035 94.0531 69.8464C94.201 69.5041 94.3833 69.2314 94.6001 69.0282C94.8169 68.8251 95.0557 68.6958 95.3165 68.6405C95.5788 68.5857 95.851 68.6103 96.1331 68.7142L95.8342 69.4062C95.663 69.3483 95.502 69.3425 95.3512 69.3888C95.2012 69.4372 95.0676 69.5235 94.9503 69.6477C94.8339 69.774 94.7374 69.9258 94.6609 70.1029C94.5767 70.2978 94.5323 70.4843 94.5279 70.6624C94.5242 70.8427 94.5586 71.0005 94.631 71.1358C94.7048 71.2717 94.8162 71.3718 94.9653 71.436C95.1009 71.4944 95.2287 71.5035 95.3485 71.4634C95.4678 71.4247 95.584 71.3521 95.6972 71.2455C95.8098 71.1404 95.923 71.0154 96.0369 70.8703L96.4179 70.3936C96.6759 70.0705 96.948 69.8436 97.2344 69.7127C97.52 69.5834 97.8224 69.5874 98.1413 69.7248C98.4051 69.8384 98.6045 70.009 98.7395 70.2366C98.8745 70.4642 98.9437 70.7235 98.9471 71.0144C98.9519 71.306 98.8881 71.605 98.7557 71.9116C98.622 72.2211 98.4496 72.4708 98.2386 72.6605C98.0269 72.8518 97.7962 72.9748 97.5462 73.0295C97.2978 73.0849 97.0494 73.0626 96.8009 72.9626L97.0882 72.2974Z" fill="#200801"/>
<path d="M90.1422 82.9436L90.5958 82.3351C90.7435 82.4085 90.8905 82.4501 91.037 82.46C91.1834 82.4699 91.3255 82.4543 91.4634 82.4133C91.6012 82.3723 91.7303 82.3076 91.8508 82.2194C91.9703 82.1324 92.0775 82.0252 92.1725 81.8978C92.344 81.6677 92.4397 81.4186 92.4595 81.1504C92.4784 80.8836 92.4151 80.6143 92.2697 80.3425C92.1233 80.072 91.8887 79.8168 91.5658 79.5768C91.2403 79.3348 90.9268 79.1826 90.6253 79.1201C90.3229 79.059 90.0465 79.0768 89.7963 79.1737C89.546 79.2705 89.336 79.4327 89.1664 79.6602C89.0724 79.7863 89.0002 79.9184 88.9497 80.0567C88.8995 80.1972 88.8739 80.3388 88.8728 80.4815C88.8717 80.6241 88.8962 80.7635 88.9464 80.8998C88.9968 81.0384 89.0767 81.1674 89.1858 81.287L88.7303 81.8939C88.5579 81.7153 88.4239 81.5177 88.3284 81.3012C88.2332 81.087 88.1799 80.8625 88.1687 80.6279C88.1578 80.3955 88.1891 80.1622 88.2626 79.9279C88.3361 79.6936 88.4548 79.4666 88.6186 79.2469C88.8764 78.9011 89.1882 78.6539 89.5538 78.5055C89.9208 78.358 90.316 78.3204 90.7396 78.3928C91.1622 78.4665 91.5864 78.6616 92.0121 78.9781C92.4392 79.2956 92.7475 79.646 92.9371 80.0295C93.1281 80.4139 93.2048 80.8022 93.1672 81.1946C93.131 81.5879 92.9844 81.9568 92.7276 82.3013C92.5696 82.5132 92.3916 82.6881 92.1938 82.8259C91.9963 82.966 91.7841 83.0659 91.5574 83.1257C91.332 83.1865 91.0995 83.2026 90.8598 83.1739C90.6215 83.1462 90.3823 83.0694 90.1422 82.9436Z" fill="#200801"/>
<path d="M87.8087 87.8967L87.2907 88.4449L84.9053 86.1977C84.6514 85.9585 84.4828 85.6871 84.3993 85.3835C84.317 85.0809 84.3217 84.7689 84.4134 84.4475C84.5062 84.1272 84.6897 83.8221 84.9637 83.5321C85.2366 83.2432 85.5304 83.0432 85.8452 82.9321C86.1612 82.822 86.4729 82.7992 86.7802 82.8636C87.0887 82.9292 87.3698 83.0815 87.6236 83.3206L90.0091 85.5679L89.4928 86.1143L87.1516 83.9088C86.9875 83.7542 86.8078 83.6528 86.6123 83.6045C86.4157 83.5575 86.2179 83.5661 86.0189 83.6304C85.821 83.6958 85.6357 83.8198 85.4631 84.0025C85.2893 84.1864 85.1755 84.3789 85.1217 84.58C85.0679 84.7833 85.0713 84.9804 85.132 85.1713C85.1915 85.3633 85.3034 85.5366 85.4675 85.6912L87.8087 87.8967Z" fill="#200801"/>
<path d="M82.8842 90.53C83.0523 90.6897 83.2491 90.7575 83.4747 90.7335C83.7014 90.7107 83.9241 90.6076 84.143 90.4243C84.2996 90.293 84.4143 90.1546 84.487 90.0091C84.5607 89.8649 84.5932 89.7233 84.5846 89.5845C84.5759 89.448 84.5261 89.3257 84.4353 89.2177C84.3592 89.1271 84.2723 89.0666 84.1747 89.0362C84.0759 89.0069 83.9729 88.999 83.8657 89.0127C83.7583 89.0286 83.6517 89.0555 83.5458 89.0934C83.441 89.1326 83.3435 89.1741 83.2532 89.218L82.7988 89.4337C82.6519 89.506 82.4931 89.5703 82.3222 89.6267C82.1514 89.6831 81.9763 89.7156 81.797 89.7241C81.6177 89.7326 81.4428 89.7035 81.2724 89.6368C81.1007 89.5712 80.9428 89.4528 80.7989 89.2814C80.6173 89.0654 80.5121 88.8267 80.4831 88.5653C80.453 88.305 80.5029 88.0379 80.6329 87.7639C80.7616 87.491 80.9752 87.2295 81.2736 86.9795C81.5596 86.7399 81.8451 86.5779 82.1301 86.4935C82.4152 86.4091 82.6867 86.4006 82.9446 86.468C83.2036 86.5367 83.4358 86.6806 83.6413 86.8999L83.0631 87.3843C82.9361 87.2559 82.7948 87.1786 82.6393 87.1523C82.4835 87.1284 82.3253 87.1456 82.1647 87.204C82.0038 87.2648 81.8494 87.3571 81.7014 87.4811C81.5386 87.6176 81.4151 87.7644 81.331 87.9215C81.2468 88.081 81.2066 88.2374 81.2104 88.3907C81.2153 88.5453 81.27 88.6847 81.3743 88.8088C81.4692 88.9218 81.5793 88.9872 81.7045 89.0051C81.8284 89.0239 81.9649 89.0111 82.1139 88.9666C82.2617 88.9232 82.4192 88.8621 82.5862 88.7836L83.1408 88.5283C83.5166 88.3552 83.8618 88.2743 84.1765 88.2857C84.49 88.2982 84.7583 88.4372 84.9816 88.7029C85.1663 88.9227 85.2678 89.1645 85.2861 89.4284C85.3045 89.6923 85.2498 89.955 85.122 90.2165C84.9953 90.4792 84.8039 90.7178 84.5478 90.9325C84.2891 91.1491 84.0229 91.295 83.749 91.37C83.4739 91.4461 83.2124 91.4525 82.9645 91.3895C82.7176 91.3276 82.5056 91.1964 82.3284 90.9957L82.8842 90.53Z" fill="#200801"/>
<path d="M80.997 92.8189L81.3528 93.3592L78.1287 95.4766L77.7728 94.9363L79.0726 94.0827L76.6885 90.4632L77.3151 90.0517L79.6992 93.6712L80.997 92.8189Z" fill="#200801"/>
<path d="M71.119 96.3447C70.8801 95.8697 70.7617 95.4176 70.7638 94.9885C70.7667 94.5609 70.8734 94.1791 71.0841 93.8431C71.294 93.5093 71.5911 93.246 71.9755 93.0533C72.3613 92.8598 72.7517 92.7783 73.1467 92.8088C73.5409 92.8414 73.911 92.985 74.2569 93.2395C74.6029 93.494 74.895 93.8581 75.1332 94.3317C75.3721 94.8068 75.4902 95.2581 75.4873 95.6857C75.4852 96.1148 75.3791 96.4963 75.1692 96.8301C74.9586 97.166 74.6604 97.4307 74.2745 97.6242C73.8902 97.817 73.5009 97.897 73.1066 97.8644C72.7117 97.8339 72.3412 97.6914 71.9953 97.4369C71.65 97.1838 71.3579 96.8198 71.119 96.3447ZM71.7848 96.0109C71.9669 96.3729 72.179 96.6484 72.421 96.8371C72.6624 97.028 72.9166 97.1363 73.1838 97.1619C73.4502 97.1897 73.7111 97.1396 73.9664 97.0116C74.2231 96.8828 74.4199 96.7035 74.5567 96.4734C74.6942 96.2449 74.759 95.9766 74.7512 95.6686C74.7427 95.3627 74.6474 95.0287 74.4653 94.6667C74.2831 94.3046 74.0714 94.0281 73.8301 93.8372C73.588 93.6484 73.3338 93.5401 73.0673 93.5123C72.8016 93.486 72.5404 93.5372 72.2836 93.6659C72.0284 93.7939 71.832 93.9722 71.6945 94.2008C71.5562 94.4315 71.4914 94.6998 71.4999 95.0057C71.5077 95.3137 71.6027 95.6488 71.7848 96.0109Z" fill="#200801"/>
<path d="M62.0486 97.6123C62.2397 97.5671 62.4252 97.5723 62.6053 97.628C62.7857 97.6852 62.942 97.7815 63.0742 97.9168C63.2048 98.0524 63.2927 98.2157 63.338 98.4065C63.3837 98.5989 63.3785 98.7842 63.3223 98.9624C63.265 99.1425 63.1684 99.2978 63.0326 99.4282C62.8971 99.5602 62.7338 99.6488 62.5427 99.694C62.35 99.7396 62.1642 99.7336 61.9854 99.676C61.8054 99.6203 61.6501 99.5247 61.5195 99.389C61.3877 99.2553 61.2989 99.0923 61.2532 98.8999C61.208 98.709 61.214 98.5236 61.2713 98.3434C61.3271 98.1637 61.4227 98.0078 61.5581 97.8758C61.6924 97.7458 61.8559 97.6579 62.0486 97.6123Z" fill="#200801"/>
</svg>
