<svg width="20" height="20" viewBox="0 0 20 20" fill="none" xmlns="http://www.w3.org/2000/svg">
<mask id="mask0_384_860" style="mask-type:alpha" maskUnits="userSpaceOnUse" x="0" y="0" width="20" height="20">
<rect width="20" height="20" fill="#D9D9D9"/>
</mask>
<g mask="url(#mask0_384_860)">
<path d="M4.16667 17.4999C3.70833 17.4999 3.31597 17.3367 2.98958 17.0103C2.66319 16.6839 2.5 16.2916 2.5 15.8333V4.16659C2.5 3.70825 2.66319 3.31589 2.98958 2.9895C3.31597 2.66311 3.70833 2.49992 4.16667 2.49992H7.66667C7.84722 1.99992 8.14931 1.59714 8.57292 1.29159C8.99653 0.98603 9.47222 0.833252 10 0.833252C10.5278 0.833252 11.0035 0.98603 11.4271 1.29159C11.8507 1.59714 12.1528 1.99992 12.3333 2.49992H15.8333C16.2917 2.49992 16.684 2.66311 17.0104 2.9895C17.3368 3.31589 17.5 3.70825 17.5 4.16659V15.8333C17.5 16.2916 17.3368 16.6839 17.0104 17.0103C16.684 17.3367 16.2917 17.4999 15.8333 17.4999H4.16667ZM4.16667 15.8333H15.8333V4.16659H4.16667V15.8333ZM6.66667 14.1666H10.8333C11.0694 14.1666 11.2674 14.0867 11.4271 13.927C11.5868 13.7673 11.6667 13.5694 11.6667 13.3333C11.6667 13.0971 11.5868 12.8992 11.4271 12.7395C11.2674 12.5798 11.0694 12.4999 10.8333 12.4999H6.66667C6.43056 12.4999 6.23264 12.5798 6.07292 12.7395C5.91319 12.8992 5.83333 13.0971 5.83333 13.3333C5.83333 13.5694 5.91319 13.7673 6.07292 13.927C6.23264 14.0867 6.43056 14.1666 6.66667 14.1666ZM6.66667 10.8333H13.3333C13.5694 10.8333 13.7674 10.7534 13.9271 10.5937C14.0868 10.4339 14.1667 10.236 14.1667 9.99992C14.1667 9.76381 14.0868 9.56589 13.9271 9.40617C13.7674 9.24645 13.5694 9.16658 13.3333 9.16658H6.66667C6.43056 9.16658 6.23264 9.24645 6.07292 9.40617C5.91319 9.56589 5.83333 9.76381 5.83333 9.99992C5.83333 10.236 5.91319 10.4339 6.07292 10.5937C6.23264 10.7534 6.43056 10.8333 6.66667 10.8333ZM6.66667 7.49992H13.3333C13.5694 7.49992 13.7674 7.42006 13.9271 7.26034C14.0868 7.10061 14.1667 6.9027 14.1667 6.66658C14.1667 6.43047 14.0868 6.23256 13.9271 6.07283C13.7674 5.91311 13.5694 5.83325 13.3333 5.83325H6.66667C6.43056 5.83325 6.23264 5.91311 6.07292 6.07283C5.91319 6.23256 5.83333 6.43047 5.83333 6.66658C5.83333 6.9027 5.91319 7.10061 6.07292 7.26034C6.23264 7.42006 6.43056 7.49992 6.66667 7.49992ZM10.4479 3.3645C10.566 3.24645 10.625 3.09714 10.625 2.91659C10.625 2.73603 10.566 2.58672 10.4479 2.46867C10.3299 2.35061 10.1806 2.29159 10 2.29159C9.81944 2.29159 9.67014 2.35061 9.55208 2.46867C9.43403 2.58672 9.375 2.73603 9.375 2.91659C9.375 3.09714 9.43403 3.24645 9.55208 3.3645C9.67014 3.48256 9.81944 3.54159 10 3.54159C10.1806 3.54159 10.3299 3.48256 10.4479 3.3645Z" fill="#4F627A"/>
</g>
</svg>
