<svg width="90" height="90" viewBox="0 0 90 90" fill="none" xmlns="http://www.w3.org/2000/svg">
<g clip-path="url(#clip0_173_2525)">
<path d="M0 0H90V90H0V0Z" fill="white"/>
<path d="M34.1237 41.6947C34.9745 40.9245 36.5277 38.947 37.3841 37.978L45.6436 28.6403C46.6924 27.445 47.6222 26.1827 48.6799 25.016C49.4594 24.1857 50.1693 23.8083 51.3131 23.7957C53.7387 23.769 54.0952 25.89 55.2842 27.4389C56.2753 28.7301 57.4528 29.9126 58.4558 31.2156C60.0285 33.2589 61.2694 35.4622 63.1133 37.2812C64.0246 37.4036 64.6191 37.3377 65.5261 37.2255C64.8719 36.5217 63.9073 35.7991 63.3282 35.0581C61.3237 32.4926 59.2814 29.9199 57.3714 27.2825C57.1469 26.9726 57.0796 26.2837 57.3694 26.0173C57.9272 26.1676 65.3721 36.0291 66.2884 37.3383C66.3888 37.3601 67.4265 37.3603 67.6308 37.3653C69.369 37.4067 71.2857 37.2087 72.9981 37.4259C73.6446 37.5078 73.9336 37.7834 74.2612 38.285C75.0373 39.9078 75.0797 62.486 74.3912 64.1814C74.3677 64.2394 74.3685 64.2347 74.341 64.2792C72.9952 66.8208 70.5894 66.3043 68.1805 66.2957L61.9299 66.2819L40.8499 66.2623L26.1333 66.3133C24.9879 66.3123 21.3931 66.4238 20.4055 66.3183L20.3326 66.1899C20.3254 65.9144 20.2826 65.6345 20.4075 65.404C20.845 65.2968 24.1023 65.33 24.8217 65.3273C23.5224 63.8126 23.8628 61.3792 25.7216 60.4288C26.7718 59.4787 36.2184 59.764 38.3269 59.7357C42.3248 59.682 46.705 59.7567 50.7446 59.8C52.3285 59.8327 54.0639 59.916 55.0875 61.3032C55.6454 62.3429 55.8311 63.3403 55.2885 64.4445C55.16 64.7058 55.0003 64.9254 55.0152 65.2039C55.3745 65.499 57.5758 65.3712 58.165 65.3641C57.0637 64.7685 57.1834 63.928 57.1401 62.7363C56.9776 58.2555 57.0484 53.745 57.0475 49.258L57.0436 43.8565C57.0427 42.2559 57.0269 40.6216 57.2515 39.0303C57.3542 38.3022 57.5322 37.9852 58.0061 37.449C56.454 36.1593 55.021 34.3946 53.7388 32.8546C52.9908 31.9562 52.1041 31.0719 51.4257 30.1344C50.4762 31.4535 49.4047 32.7219 48.3985 34.1465C47.2081 35.832 45.4449 38.6039 44.2111 40.0566C45.6897 40.4085 47.7244 41.8639 48.8008 42.8377C50.6908 44.5643 51.6828 46.7917 51.6619 49.3504C51.7021 50.6298 51.6995 51.919 51.7111 53.1973C51.7266 54.891 51.179 55.0935 49.6024 55.1167C48.3511 55.2897 46.0164 55.1787 44.644 55.2431L44.6568 58.0932C46.2495 58.1073 47.8423 58.1125 49.435 58.1088C50.1833 58.1077 51.7237 58.073 52.3997 58.169C53.1298 58.1609 54.7587 58.0163 55.2022 58.6495L55.1587 58.7909C54.8866 59.0093 54.3218 59.1038 53.9787 59.1021C44.4534 59.0545 34.8704 58.8504 25.3539 59.1689C24.9125 59.1837 24.3425 59.1924 24.0027 58.8815C23.8958 58.5704 23.9038 58.7046 23.9887 58.3704C24.4443 58.0541 33.9889 58.0252 35.1702 58.1133C35.2384 57.959 35.1827 55.952 35.221 55.5265L35.1567 55.3811C34.6596 55.0959 28.8794 55.3716 27.95 55.2546C26.7261 55.1006 24.8794 55.6676 24.1795 54.1619C23.8705 52.3845 24.1106 49.3856 24.0308 47.4958C24.0562 46.2057 23.9696 44.9096 23.9967 43.6213C24.0187 42.5696 24.5232 42.1861 25.4933 42.0657C28.3268 41.7137 31.2989 42.0729 34.1237 41.6947Z" fill="#212730"/>
<path d="M73.682 64.0989C73.1787 64.8796 71.9251 64.8949 71.0877 64.9033C69.6918 64.9171 68.2941 64.9139 66.898 64.92C65.1475 64.9444 63.3969 64.9381 61.6467 64.901C60.7367 64.8868 59.7541 64.9013 58.8588 64.7738C58.6863 64.7493 58.2186 64.6403 58.1569 64.4823C57.9373 63.9193 57.8188 62.8581 57.8107 62.2784C57.7681 59.2316 57.8067 56.1643 57.8034 53.1183L57.7924 44.9315C57.7906 42.8808 57.7115 40.5975 58.0349 38.5572C58.1445 37.8661 59.4528 38.1101 59.9718 38.1033C61.5722 38.0738 63.1728 38.0644 64.7734 38.0749C67.2063 38.082 69.6392 38.0652 72.0717 38.0724C72.7813 38.0746 73.3137 38.0528 73.6061 38.7656C73.8894 38.695 74.1297 38.5484 74.2612 38.2846C75.0373 39.9074 75.0797 62.4856 74.3912 64.1811C74.3676 64.2391 74.3685 64.2343 74.341 64.2789C74.1694 64.215 73.8686 64.1472 73.682 64.0989Z" fill="white"/>
<path d="M74.2611 38.2847C75.0372 39.9075 75.0797 62.4857 74.3911 64.1811C74.3676 64.2391 74.3684 64.2344 74.3409 64.2789C74.1694 64.215 73.8685 64.1473 73.6819 64.0989L73.6061 38.7657C73.8894 38.695 74.1296 38.5484 74.2611 38.2847Z" fill="#212730"/>
<path d="M60.5208 53.9629C61.8277 54.0902 63.6109 54.0184 64.943 54.0076L71.2762 53.9901L71.2618 55.2278C68.0585 55.4293 63.8893 55.2498 60.5625 55.2976L60.5208 53.9629Z" fill="#212730"/>
<path d="M62.7536 46.1889C65.5811 46.0992 68.4111 46.1181 71.2372 46.2451L71.3044 47.3736L69.104 47.4007C66.2455 47.4309 63.3609 47.3776 60.497 47.3809C60.4734 47.0006 60.5155 46.599 60.5443 46.2172L62.7536 46.1889Z" fill="#212730"/>
<path d="M60.5424 42.6403C61.3213 42.7061 62.6153 42.6582 63.4271 42.6523L68.4662 42.6361C69.2948 42.6371 70.5721 42.6044 71.3465 42.7393L71.448 42.8901L71.383 43.1905C70.4954 43.3177 61.3128 43.5351 60.5771 43.3193C60.4624 43.1244 60.5206 42.8817 60.5424 42.6403Z" fill="#212730"/>
<path d="M60.5326 50.4516C61.8159 50.4856 70.9656 50.2842 71.3351 50.6734L71.3244 51.0618C69.8178 51.2034 67.5176 51.146 65.9543 51.1545C64.3382 51.1631 62.2054 51.2432 60.6248 51.1619C60.4957 50.9378 60.5395 50.7425 60.5326 50.4516Z" fill="#212730"/>
<path d="M65.7524 60.8354C66.4375 60.8685 66.951 61.1617 67.0929 61.8758C67.1662 62.2282 67.0912 62.5953 66.8854 62.8906C66.6516 63.2269 66.3787 63.3885 65.9845 63.4632C65.3312 63.3402 64.7411 63.0942 64.5219 62.401C64.4341 62.1313 64.4644 61.8371 64.6054 61.591C64.8494 61.1662 65.3018 60.9578 65.7524 60.8354Z" fill="#212730"/>
<path d="M65.386 61.7192C65.8157 61.69 66.2113 61.5699 66.4424 61.979C66.439 62.2589 66.3426 62.4013 66.2178 62.6468C65.7303 62.6701 65.5684 62.6954 65.2511 62.3045C65.2321 61.9207 65.2111 62.0611 65.386 61.7192Z" fill="white"/>
<path d="M24.88 42.8665C25.9143 42.6271 27.7336 42.7037 28.8568 42.7052C30.6307 42.6934 32.4047 42.7083 34.1782 42.7498C35.0108 43.5197 37.4992 46.8914 37.8039 47.9588C37.9149 48.3763 37.8487 48.3783 38.1149 48.6454C38.4148 48.7068 38.5052 48.6472 38.7799 48.5319C38.8392 50.3601 38.8608 52.1894 38.8446 54.0185C41.2185 54.0269 45.8204 53.9168 48.0141 54.1348C47.2051 54.4774 45.7414 54.0669 45.0659 54.1938C45.1872 54.245 45.2984 54.2934 45.4176 54.3496C45.3729 54.8025 45.1815 54.7748 45.3571 55.0198C45.9908 55.1298 48.5406 54.9809 49.6023 55.1165C48.351 55.2895 46.0164 55.1785 44.644 55.2429L44.6568 58.093C46.2495 58.1071 47.8422 58.1122 49.435 58.1086C50.1833 58.1075 51.7237 58.0728 52.3996 58.1688C53.1297 58.1607 54.7587 58.0161 55.2022 58.6493L55.1587 58.7907C54.8866 59.0091 54.3218 59.1036 53.9787 59.1019C44.4533 59.0543 34.8704 58.8502 25.3539 59.1687C24.9125 59.1835 24.3425 59.1922 24.0027 58.8813C23.8957 58.5702 23.9037 58.7044 23.9887 58.3702C24.4443 58.0539 33.9889 58.025 35.1702 58.113C35.2384 57.9588 35.1826 55.9518 35.221 55.5263L35.1567 55.3809C34.6596 55.0957 28.8794 55.3714 27.9499 55.2544C26.7261 55.1004 24.8794 55.6674 24.1794 54.1616C24.4756 54.2921 24.5127 54.4795 24.8792 54.6668L24.9235 54.5538L24.7225 54.3967C25.0351 54.0304 24.9766 54.0403 24.9502 53.502C24.9814 52.7023 24.8795 50.8397 24.8668 49.9595C24.8297 47.5952 24.8341 45.2306 24.88 42.8665Z" fill="#FF5724"/>
<path d="M37.8039 47.959C37.9149 48.3766 37.8487 48.3785 38.1149 48.6456C38.4148 48.707 38.5052 48.6474 38.7799 48.5321C38.8392 50.3603 38.8608 52.1896 38.8446 54.0187C41.2185 54.0271 45.8204 53.917 48.0141 54.135C47.2051 54.4777 45.7414 54.0671 45.0659 54.194C45.1872 54.2452 45.2984 54.2936 45.4176 54.3499C45.3729 54.8028 45.1815 54.775 45.3571 55.02C45.9908 55.1301 48.5406 54.9811 49.6023 55.1167C48.351 55.2897 46.0164 55.1787 44.644 55.2431L44.6568 58.0932C46.2495 58.1073 47.8422 58.1125 49.435 58.1088C50.1833 58.1077 51.7237 58.073 52.3996 58.169C53.1297 58.1609 54.7587 58.0163 55.2022 58.6495L55.1587 58.7909C54.8866 59.0093 54.3218 59.1038 53.9787 59.1021C44.4533 59.0545 34.8704 58.8504 25.3539 59.1689C24.9125 59.1837 24.3425 59.1924 24.0027 58.8815C23.8957 58.5704 23.9037 58.7046 23.9887 58.3704C24.4443 58.0541 33.9889 58.0252 35.1702 58.1133C35.2384 57.959 35.1826 55.952 35.221 55.5265L35.1567 55.3811C34.6596 55.0959 28.8794 55.3716 27.9499 55.2546C26.7261 55.1006 24.8794 55.6676 24.1794 54.1619C24.4756 54.2923 24.5127 54.4797 24.8792 54.6671L24.9235 54.554L24.7225 54.3969C25.0351 54.0306 24.9766 54.0405 24.9502 53.5022C24.9711 53.5992 25.0549 54.0678 25.1868 54.0718C29.3229 54.1956 33.5422 53.8684 37.6729 54.0487C37.5545 53.1372 37.8101 49.2563 37.8039 47.959Z" fill="#212730"/>
<path d="M52.3996 58.1686C53.1297 58.1606 54.7587 58.016 55.2022 58.6491L55.1587 58.7906C54.8866 59.009 54.3218 59.1035 53.9787 59.1018C44.4533 59.0541 34.8704 58.8501 25.3539 59.1686C24.9125 59.1833 24.3425 59.192 24.0027 58.8812C23.8957 58.57 23.9037 58.7043 23.9887 58.3701C24.4443 58.0538 33.9889 58.0249 35.1702 58.1129C35.4127 58.1737 36.0361 58.1575 36.2733 58.1032C36.5914 58.1054 36.9796 58.0973 37.2912 58.1158C37.3402 58.1452 37.3851 58.1827 37.4382 58.2038C37.6845 58.3019 51.4938 58.2865 52.3996 58.1686Z" fill="#212730"/>
<path d="M36.1932 55.5098L36.281 55.3424C36.8234 55.2077 42.5489 55.2673 43.492 55.2724L43.504 58.0731L39.2762 58.0967C38.922 58.0985 37.5938 58.0765 37.2912 58.1162C36.9796 58.0976 36.5914 58.1057 36.2733 58.1035C36.0361 58.1578 35.4127 58.1741 35.1702 58.1133C35.2384 57.959 35.1826 55.952 35.221 55.5265L35.336 55.3937C35.5746 55.4474 35.9772 55.5691 36.1932 55.5098Z" fill="white"/>
<path d="M35.221 55.5264L35.336 55.3936C35.5746 55.4473 35.9772 55.569 36.1932 55.5097C36.2979 56.1121 36.3003 57.4628 36.2733 58.1034C36.0361 58.1577 35.4127 58.174 35.1702 58.1132C35.2384 57.9589 35.1826 55.9519 35.221 55.5264Z" fill="#212730"/>
<path d="M28.6722 46.0946C29.6414 46.0863 33.5251 45.8246 33.9216 46.7479C33.8262 47.3689 33.316 47.3281 32.8051 47.3661C32.0544 47.3927 27.8302 47.5191 27.3868 47.1997C27.2976 46.8722 27.4335 46.4564 27.5121 46.1143C27.8857 46.1191 28.2955 46.1023 28.6722 46.0946Z" fill="#FF5724"/>
<path d="M27.4923 49.81C28.5852 49.8962 33.5737 49.551 33.9975 50.1813L33.903 50.3432C33.0105 50.5705 28.6339 50.6406 27.597 50.5535C27.4487 50.3348 27.4895 50.0888 27.4923 49.81Z" fill="#212730"/>
<path d="M25.7215 60.4285C26.7717 59.4784 36.2183 59.7637 38.3268 59.7354C42.3246 59.6817 46.7048 59.7564 50.7445 59.7997C52.3284 59.8324 54.0638 59.9157 55.0874 61.303C54.9246 61.6812 54.8548 61.9044 54.5617 62.1941C54.6673 63.061 54.562 63.9851 54.0456 64.7219C53.7524 65.1405 53.4139 65.1757 52.939 65.2282C51.1299 65.4001 49.272 65.3654 47.4573 65.3529L41.1568 65.3378L32.7493 65.3093C31.1985 65.3138 27.2214 65.5086 25.8826 65.0779C25.2427 64.2837 25.1316 63.887 24.9107 62.8694C24.8537 62.3685 24.7979 61.9588 24.8078 61.4519C24.9288 61.1756 25.4851 60.7628 25.7424 60.5468L25.7215 60.4285Z" fill="white"/>
<path d="M25.7215 60.4285C26.7717 59.4784 36.2183 59.7637 38.3268 59.7354C42.3246 59.6817 46.7048 59.7564 50.7445 59.7997C52.3284 59.8324 54.0638 59.9157 55.0874 61.303C54.9246 61.6812 54.8548 61.9044 54.5617 62.1941C53.8801 61.4189 53.2725 61.173 52.2589 61.1353C50.5453 61.0716 48.7996 61.1438 47.0805 61.1543L37.6989 61.1629L30.9991 61.1466C29.1555 61.1302 25.4779 60.554 24.9107 62.8694C24.8537 62.3685 24.7979 61.9588 24.8078 61.4519C24.9288 61.1756 25.4851 60.7628 25.7424 60.5468L25.7215 60.4285Z" fill="#212730"/>
<path d="M41.0254 62.5924C41.5137 62.5707 41.9196 62.472 42.1555 62.9519C42.1687 63.2979 41.958 63.6819 41.8135 64.008C41.607 64.0206 41.5764 64.0114 41.3775 63.952C41.0257 63.519 40.6196 63.0753 41.0254 62.5924Z" fill="#212730"/>
<path d="M47.5714 62.4214C47.8554 62.4379 48.5227 62.7835 48.8153 62.9195L48.2372 63.6715C48.0828 63.8751 48.02 64.0106 47.7795 64.073L47.6304 63.9696C47.4534 63.5518 47.5221 62.8685 47.5714 62.4214Z" fill="#212730"/>
<path d="M37.7736 62.6041C38.2509 62.5754 38.4536 62.485 38.7821 62.8456C38.8734 63.2074 38.6291 63.6046 38.4584 63.9391L38.107 64.0229C37.699 63.7863 37.5944 63.0208 37.7736 62.6041Z" fill="#212730"/>
<path d="M34.6411 62.6724C35.0676 62.4667 35.5136 62.549 35.8553 62.8738C35.5881 63.2696 35.3202 64.0543 34.7664 63.9043C34.571 63.6061 34.4811 62.9943 34.6411 62.6724Z" fill="#212730"/>
<path d="M34.6411 62.6724C35.0676 62.4667 35.5136 62.549 35.8553 62.8738C35.4198 63.1206 35.2403 63.0113 34.704 62.9L34.6411 62.6724Z" fill="#212730"/>
<path d="M31.3954 62.4585C31.8173 62.4803 31.9747 62.4387 32.2216 62.7992C32.2693 63.1552 32.0252 63.6239 31.8814 63.9736L31.6002 64.1006L31.438 64.0113C31.2464 63.5592 31.3157 62.9343 31.3954 62.4585Z" fill="#212730"/>
<path d="M28.3414 62.3535C29.3566 62.6996 28.979 63.3077 28.7426 64.1327L28.452 64.011C28.0543 63.516 28.043 62.9047 28.3414 62.3535Z" fill="#212730"/>
<path d="M44.596 62.4595C44.9905 62.5004 44.9359 62.4326 45.1771 62.6576C45.2821 63.0582 45.1116 63.6583 45.047 64.1363C44.2687 63.9578 44.1707 63.0211 44.596 62.4595Z" fill="#212730"/>
<path d="M50.7905 62.5778C51.1895 62.573 51.5106 62.5052 51.7845 62.8167C51.8458 63.1134 51.6487 63.537 51.539 63.8404C51.3088 63.9365 51.4065 63.9266 51.1681 63.8865C50.908 63.5761 50.6475 62.9765 50.7905 62.5778Z" fill="#212730"/>
<path d="M38.7952 40.8924C42.1002 40.5039 44.5823 40.8569 47.242 42.9728C49.126 44.4716 50.4857 46.1848 50.7124 48.6495C50.8523 50.1713 50.8686 52.537 50.7098 54.0627C49.8111 54.0797 48.9125 54.1037 48.0141 54.1346C45.8204 53.9167 41.2186 54.0268 38.8446 54.0184C38.8608 52.1893 38.8393 50.36 38.7799 48.5318C38.7381 46.0471 38.5973 43.3492 38.7952 40.8924Z" fill="white"/>
<path d="M41.9541 41.731C45.6915 42.0736 49.6023 45.2008 49.7724 49.1277C49.7814 49.3351 49.7846 49.325 49.6431 49.463C48.5012 49.4705 45.1855 49.5545 44.1466 49.2825C43.3564 49.0825 42.6808 48.5711 42.2737 47.865C41.5544 46.6316 41.627 43.0332 41.9541 41.731Z" fill="#212730"/>
<path d="M42.7778 42.812C46.0009 43.8504 47.3575 45.1261 48.6049 48.2591C46.9005 48.2542 44.9974 48.3359 43.3893 47.7874C42.4876 46.5493 42.692 44.2996 42.7778 42.812Z" fill="white"/>
<path d="M47.7984 27.4878C47.9255 27.6171 48.111 27.9559 48.2483 28.1304C48.9614 29.0366 49.3727 29.5076 50.4529 29.9384C48.8182 31.424 47.2289 34.0973 45.9468 35.9504C45.2507 36.9565 43.7895 38.9504 43.3261 39.9549C42.7484 39.8767 42.158 39.8246 41.5979 39.8112C39.1089 39.7518 37.5725 39.4865 37.7271 42.6222C37.7763 43.6214 37.7006 44.8107 37.8753 45.9084L37.7639 45.9177C37.0276 44.7675 35.8889 43.4065 35.0138 42.3082C38.3835 38.2054 42.143 34.3127 45.5559 30.2288C46.3481 29.2809 47.1257 28.56 47.7984 27.4878Z" fill="white"/>
<path d="M54.265 27.9033C54.4154 27.9847 57.5435 31.7589 57.9303 32.2126C59.2938 33.8123 60.2849 36.0421 62.0147 37.3671C61.2958 37.3991 60.553 37.3672 59.8316 37.3471C58.6013 37.1763 58.1892 36.2852 57.3785 35.5097C55.7387 33.9412 53.9535 31.0197 52.1294 29.797C53.328 29.3944 53.8001 29.0587 54.265 27.9033Z" fill="white"/>
<path d="M50.8894 24.6294C52.5096 24.5646 53.9602 25.7868 53.5246 27.5706C53.3578 28.2533 52.2884 28.8525 51.6634 29.1662C50.3869 29.6481 49.381 28.1795 48.9105 27.1942C49.149 26.029 49.7234 25.0494 50.8894 24.6294Z" fill="#FF5724"/>
<path d="M28.7559 67.6966L53.121 67.697C55.9848 67.6787 59.9074 67.8803 62.6321 67.7034C62.658 68.1702 62.6843 68.52 62.6434 68.9909C56.219 69.0712 49.7941 69.0965 43.3693 69.0671C38.615 69.0722 33.4502 69.1527 28.715 69.0093C28.71 68.5776 28.737 68.1292 28.7559 67.6966Z" fill="#212730"/>
<path d="M25.3618 39.2315C25.8621 39.1904 26.3423 39.0755 26.7205 39.375C26.8869 40.4308 24.4281 39.9593 23.6099 40.9948C22.091 42.9169 22.5149 46.0954 22.4858 48.4329C22.3703 48.7516 22.1648 49.0393 21.8243 48.851C21.7091 48.6319 21.6281 48.3026 21.6193 48.0534C21.5045 44.818 20.8242 39.6706 25.3618 39.2315Z" fill="#212730"/>
<path d="M64.424 67.8959C64.5655 67.8282 64.6132 67.8521 64.7671 67.8801C65.0134 68.186 64.9896 68.3901 64.8282 68.7248C64.5788 68.9147 64.6859 68.8699 64.3189 68.8331C63.8189 68.7623 63.6166 68.8043 63.4128 68.3214L63.5113 68.1138C63.8642 67.8736 63.9679 67.9344 64.424 67.8959Z" fill="#212730"/>
<path d="M27.6373 38.8696L28.0824 38.9428C28.5677 39.2875 28.4333 39.7898 28.2383 40.2625C27.91 40.329 27.8583 40.32 27.6342 40.1149C27.5026 39.7636 27.5973 39.2577 27.6373 38.8696Z" fill="#212730"/>
</g>
<defs>
<clipPath id="clip0_173_2525">
<rect width="90" height="90" fill="white"/>
</clipPath>
</defs>
</svg>
