<svg width="90" height="90" viewBox="0 0 90 90" fill="none" xmlns="http://www.w3.org/2000/svg">
<g clip-path="url(#clip0_173_2575)">
<path d="M0 0H90V90H0V0Z" fill="white"/>
<path d="M27.0863 46.8721C33.0599 50.2876 33.2946 46.2267 36.1304 54.6183C37.0659 53.6452 39.6193 51.5075 40.72 50.8401C40.3017 50.4487 39.2726 49.3233 39.5707 48.7354C40.0201 48.7711 41.0462 49.9484 41.7269 50.4071C43.8068 50.4714 44.7367 50.5238 46.3635 51.9971C48.0261 50.441 50.1461 48.9897 51.8764 47.4739C52.1196 47.2607 52.5776 47.1799 52.8993 47.2569C52.9476 47.8688 49.5984 50.293 48.9072 51.1084C49.061 53.833 48.3843 53.8082 47.0071 56.0004C46.1561 57.4628 46.0604 58.6998 44.6689 59.832C42.2436 61.8052 40.3254 63.7189 37.1872 64.4541C37.1452 64.8547 37.1281 65.2758 37.1051 65.6793L37.1322 67.8187L41.601 67.8938C42.0573 67.8814 42.4784 67.8975 42.9329 67.9137C42.9906 66.437 42.8999 64.9377 42.9748 63.4603C42.9974 63.0136 43.0347 62.5153 43.4572 62.2667L43.6067 62.3387C43.9093 62.9498 43.7823 66.9242 43.7743 67.8446C44.471 67.8558 45.0011 67.8908 45.6955 67.9581C45.683 67.3671 45.5917 65.1974 45.7663 64.7678L45.9524 64.7141C46.1081 64.9636 46.274 65.4326 46.351 65.7182C46.3418 66.0955 46.3374 67.148 46.2826 67.4664L46.2689 67.538C46.2098 67.8572 46.2208 67.9265 46.2788 68.2436C46.1476 68.5331 46.2213 68.4283 45.935 68.639L46.0655 68.6486L46.0881 68.7187C43.8936 68.71 41.6708 68.703 39.4776 68.7351C34.5059 68.808 29.3576 69.1675 24.3972 68.6531C23.8435 68.6458 23.0288 68.8014 22.5463 68.625C22.3958 68.5701 22.3761 68.2966 22.3333 68.1158L22.4609 67.9403C22.9124 67.6904 23.3189 68.0666 23.704 67.6867C23.5998 66.7425 23.6412 65.1557 23.6408 64.193C23.6394 59.3874 23.9961 54.6436 25.6234 50.087C26.0374 48.9281 26.3998 47.911 27.0863 46.8721Z" fill="#212730"/>
<path d="M27.4188 47.835C29.361 49.3697 30.3743 49.0688 32.2347 49.6045C34.316 50.2039 35.2662 55.6769 36.2131 57.5307C34.8526 56.6669 31.8394 52.7946 31.1966 52.5862L31.0963 52.6834C31.0601 53.3814 32.1922 54.7112 32.6554 55.2869C35.5333 58.8634 37.1491 59.4876 40.8859 56.5283C41.6548 57.4595 42.779 58.6034 43.6246 59.5112C41.8738 61.1112 39.0717 63.5766 36.4851 63.4456C32.7857 63.258 31.3191 59.9909 29.0162 57.6615C28.7244 57.3663 28.5258 57.0948 28.1258 57.0835C27.9768 57.3066 28.0176 57.2053 28.0008 57.504C28.489 58.3906 31.5104 61.9338 32.2933 62.6215C32.8769 63.1313 33.5263 63.5606 34.2238 63.898C34.9114 64.2315 35.6173 64.162 36.2139 64.5401C36.3108 64.6015 36.2805 64.9177 36.2844 65.0808C36.1704 65.9139 36.2331 66.9709 36.2062 67.831C35.7014 67.7221 33.2905 67.7282 32.6144 67.7343C29.9144 67.7587 27.1268 67.7148 24.4348 67.7947L24.3572 67.7435L24.382 67.4203C24.5973 62.9626 24.2141 58.6698 25.2982 54.2029C25.8775 51.8163 26.6987 50.1067 27.4188 47.835Z" fill="white"/>
<path d="M42.9329 67.9141C42.9906 66.4374 42.8999 64.9381 42.9748 63.4606C42.9974 63.014 43.0347 62.5156 43.4572 62.2671L43.6067 62.3391C43.9093 62.9502 43.7823 66.9246 43.7743 67.845C44.471 67.8561 45.0011 67.8911 45.6955 67.9584C45.683 67.3675 45.5917 65.1978 45.7663 64.7682L45.9524 64.7145C46.1081 64.9639 46.274 65.433 46.351 65.7186C46.3418 66.0959 46.3374 67.1484 46.2826 67.4668L46.2689 67.5383C46.2098 67.8576 46.2208 67.9269 46.2788 68.244C46.1476 68.5334 46.2213 68.4287 45.935 68.6393L46.0655 68.6489L46.0881 68.7191C43.8936 68.7104 41.6708 68.7034 39.4776 68.7355C34.5059 68.8084 29.3576 69.1679 24.3972 68.6535C23.8435 68.6462 23.0288 68.8018 22.5463 68.6254C22.3958 68.5704 22.3761 68.2969 22.3333 68.1161L22.4609 67.9407C22.9124 67.6907 23.3189 68.067 23.704 67.687L23.8655 67.8179C24.1831 67.7213 24.1245 67.7015 24.3821 67.4206L24.3572 67.7438L24.4348 67.7951C27.1268 67.7151 29.9144 67.759 32.6144 67.7346C33.2905 67.7285 35.7014 67.7224 36.2063 67.8313C36.2332 66.9712 36.1704 65.9142 36.2844 65.0811C36.3165 65.6965 36.3147 66.488 36.4972 67.0532C36.5966 67.3609 36.2527 67.4985 36.448 67.7238C36.8048 67.6743 36.7303 67.7335 36.9877 67.5295C37.2075 66.9843 36.646 66.5087 36.6769 66.1895L36.7434 66.1388C36.9452 65.9832 37.0343 65.9318 37.1051 65.6797L37.1322 67.8191L41.601 67.8942C42.0573 67.8818 42.4784 67.8979 42.9329 67.9141Z" fill="#212730"/>
<path d="M42.9328 67.9141C42.9906 66.4374 42.8999 64.9381 42.9748 63.4606C42.9974 63.014 43.0346 62.5156 43.4572 62.2671L43.6066 62.3391C43.9092 62.9502 43.7822 66.9246 43.7742 67.845C44.4709 67.8561 45.0011 67.8911 45.6954 67.9584C45.683 67.3675 45.5917 65.1978 45.7663 64.7682L45.9524 64.7145C46.1081 64.9639 46.274 65.433 46.351 65.7186C46.3418 66.0959 46.3374 67.1484 46.2825 67.4668L46.2688 67.5383C46.2098 67.8576 46.2208 67.9269 46.2788 68.244C46.1475 68.5334 46.2213 68.4287 45.935 68.6393C44.9393 68.6103 43.83 68.6321 42.826 68.6315C42.0541 68.5258 40.6751 68.7843 40.1066 68.355C40.0374 68.2001 39.9914 68.1759 40.0227 68.0463C40.4256 67.8877 40.9716 68.0208 41.527 67.9096L41.601 67.8942C42.0573 67.8818 42.4784 67.8979 42.9328 67.9141Z" fill="#212730"/>
<path d="M36.2062 67.8312C36.2331 66.9711 36.1704 65.9142 36.2844 65.0811C36.3164 65.6965 36.3147 66.488 36.4971 67.0531C36.5965 67.3608 36.2526 67.4985 36.4479 67.7237C36.8048 67.6743 36.7302 67.7335 36.9877 67.5294C37.2075 66.9842 36.6459 66.5087 36.6769 66.1894L36.7434 66.1387C36.9452 65.9832 37.0342 65.9317 37.1051 65.6797L37.1322 67.819L41.601 67.8942L41.527 67.9096C40.9716 68.0207 40.4256 67.8877 40.0227 68.0463C39.9914 68.1759 40.0374 68.2 40.1065 68.355C40.6751 68.7842 42.0541 68.5258 42.826 68.6315C41.3818 68.7623 36.7271 68.8277 35.5717 68.1609L35.907 68.0895L35.9204 67.9893L35.6921 67.8979C35.8789 67.8972 36.0246 67.8641 36.2062 67.8312Z" fill="#212730"/>
<path d="M24.3821 67.4204L24.3572 67.7436L24.4348 67.7948C24.9549 67.946 25.972 67.8609 26.6006 67.9288C26.2179 68.1557 26.3713 67.9214 26.0767 68.2709L26.0813 68.3921L26.3144 68.4473C26.0963 68.7497 24.8573 68.5912 24.3972 68.6533C23.8435 68.646 23.0288 68.8015 22.5463 68.6251C22.3958 68.5702 22.3761 68.2967 22.3333 68.1159L22.4609 67.9405C22.9124 67.6905 23.3189 68.0668 23.704 67.6868L23.8655 67.8177C24.1831 67.7211 24.1245 67.7012 24.3821 67.4204Z" fill="#212730"/>
<path d="M24.3821 67.4204L24.3572 67.7436C24.3289 68.1691 24.3981 68.0841 24.1628 68.3644C23.4873 68.5825 23.2774 68.5075 22.5748 68.4125C22.4537 68.2892 22.4224 68.2621 22.3333 68.1159L22.4609 67.9405C22.9124 67.6905 23.3189 68.0668 23.704 67.6868L23.8655 67.8177C24.1831 67.7211 24.1245 67.7012 24.3821 67.4204Z" fill="#212730"/>
<path d="M48.1905 51.4834C48.2303 51.5142 48.274 51.59 48.3061 51.6368C47.8603 53.558 46.3349 55.5725 45.1052 57.1148L44.7949 56.4841C44.4915 55.8903 44.2593 55.4844 43.8273 54.9778C44.6077 54.5353 47.4788 52.1429 48.1905 51.4834Z" fill="white"/>
<path d="M42.4638 55.0332C43.1152 55.2082 44.2092 57.2559 45.0971 58.0276C44.9195 58.3702 44.5961 58.7838 44.3622 59.1039C43.809 58.4539 41.5763 56.1277 41.7108 55.3442C41.8982 55.1475 42.1874 55.1083 42.4638 55.0332Z" fill="white"/>
<path d="M36.6172 54.8027C37.3592 54.8152 38.5472 56.1694 38.8666 56.8035C38.7671 57.0427 38.6735 57.0427 38.4243 57.2106C37.9073 57.3909 37.2989 57.5314 36.7622 57.6693C36.6752 56.7851 36.2745 55.5239 36.6172 54.8027Z" fill="white"/>
<path d="M40.457 53.0542C41.5948 53.2901 43.6791 52.9763 44.1923 53.5219C44.2587 53.7577 44.2711 53.6674 44.1661 53.8574C43.572 54.2066 42.7059 54.0469 42.0553 54.0536C41.8781 54.0554 41.6337 54.849 41.3035 54.638C40.9443 54.4083 40.2027 53.7652 39.9182 53.4835C40.1044 53.3245 40.2613 53.2004 40.457 53.0542Z" fill="white"/>
<path d="M38.6953 53.5225C39.1896 53.6489 40.2483 54.9531 40.6249 55.3955L39.6957 55.9961C39.2761 55.838 37.8467 54.5896 37.8307 54.155C38.0014 53.8611 38.3878 53.6929 38.6953 53.5225Z" fill="white"/>
<path d="M42.3492 51.1646C43.1195 51.0108 45.4034 51.6666 45.5711 52.493L45.3489 52.734C45.2756 52.7947 45.1695 52.8832 45.0804 52.9051C44.4607 53.0573 42.4732 51.6257 42.3492 51.1646Z" fill="white"/>
<path d="M39.9182 53.4837C39.7862 53.3095 39.4764 53.1694 39.2721 53.0564L39.2877 52.9132C39.8265 52.2842 41.3483 51.2616 41.9896 52.2454C41.6619 52.744 40.7988 52.3315 40.4569 53.0545C40.2613 53.2007 40.1043 53.3247 39.9182 53.4837Z" fill="white"/>
<path d="M32.0549 33.6808C34.9969 33.4284 35.3215 34.5005 37.7667 35.6453C38.6981 36.0814 39.7831 36.1999 40.8002 36.2253C40.4198 39.0171 40.4579 38.317 38.7378 40.3191C38.2087 42.63 38.3865 46.1891 36.3613 47.9728C35.1057 49.0785 32.2006 47.7011 31.5067 46.3948C31.3293 46.0609 30.8522 45.4913 31.3725 45.2019C32.1575 45.545 32.3215 46.6354 33.8584 47.208C36.4709 48.1813 36.6065 46.461 37.3711 44.0528C37.6837 43.1939 37.7781 41.2879 38.0076 40.2567C36.125 40.3377 34.794 40.1382 32.9852 39.5186C32.6112 39.9191 31.8412 41.2188 31.4915 41.4209C30.8892 39.7618 30.9541 39.7469 29.2363 39.1084C29.3281 40.0461 29.4607 40.812 29.6379 41.7286C30.1429 42.0065 30.9505 42.4437 31.0277 43.039L30.8709 43.1413C30.249 43.1372 29.9489 42.9226 29.4365 42.5939C29.2489 43.3761 29.0631 46.0366 28.2518 46.2192C27.7809 45.6252 28.6092 43.2948 28.6383 42.502C28.7189 40.3099 27.861 37.9814 28.9867 35.9251C29.6702 34.6767 30.7362 34.0559 32.0549 33.6808Z" fill="#212730"/>
<path d="M32.7358 34.4827C34.4825 34.304 35.8943 35.7245 37.4393 36.3706C38.4839 36.8074 38.9833 36.9043 40.1034 37.0468C39.1 39.3878 38.1964 39.6515 35.7527 39.3554C34.7394 39.2269 33.9568 39.0506 32.9792 38.8096C32.4667 38.9866 32.2409 39.2443 31.7873 39.409C31.7912 39.4076 31.4624 39.1592 31.403 39.1203C30.5681 38.5715 29.9646 38.5128 29.0277 38.565C29.3396 36.3482 30.3362 34.7571 32.7358 34.4827Z" fill="white"/>
<path d="M48.0968 31.7789C48.1546 31.4485 48.2059 31.1171 48.2507 30.7847C48.2542 31.1149 48.2103 31.5912 48.3993 31.8338C48.9594 32.1524 48.9056 31.7835 49.5611 32.305C49.2738 33.337 49.7091 36.5 49.6115 37.6184C49.5149 38.7253 49.7319 47.3967 49.3949 47.7127C49.0256 47.6822 45.2097 47.2816 45.117 47.2044C45.0249 46.8409 45.0464 46.7392 45.0886 46.3642C45.3206 46.1581 47.6147 46.1909 48.1684 46.1508C48.1798 45.6204 48.2034 45.0399 48.1899 44.5142C47.4594 44.5197 45.5033 44.6575 45.0273 44.2609C44.9619 43.986 44.9481 44.091 45.0581 43.8584C45.7996 43.5772 47.3196 43.7067 48.2056 43.5815C48.1979 43.0146 48.1995 42.4158 48.1779 41.8521C47.0486 41.8533 46.1096 41.8796 44.9871 41.7046C44.9656 41.4063 44.9 40.9927 45.015 40.7377C45.5895 40.3758 46.7609 41.1197 46.7966 39.7903C46.5842 39.5694 44.4344 39.6659 43.9997 39.7018C43.8822 40.714 44.0115 41.1742 43.7694 42.2311C43.764 43.6411 43.7658 45.0512 43.7746 46.4612C43.7778 47.1215 43.8183 48.3598 43.7272 48.9676C43.4484 49.1069 43.4605 49.0547 43.1053 49.0364C43.0659 48.9926 43.0265 48.9488 42.9871 48.905C42.9995 45.8124 42.8775 39.0498 42.9709 36.4184C43.4484 36.4873 44.9625 36.4637 45.5042 36.4671C46.1909 36.3982 47.9098 36.5997 48.2466 36.4433C48.0971 35.7525 48.0764 32.5762 48.0968 31.7789Z" fill="#212730"/>
<path d="M42.9709 36.418C43.4484 36.4869 44.9625 36.4633 45.5042 36.4667C46.3313 36.7274 48.241 36.344 48.2561 37.1954C48.3579 37.5199 48.2908 38.5114 48.283 38.9057C47.8139 38.8745 47.5599 38.8443 47.0882 38.9222C47.3762 38.936 47.6018 38.9088 47.8184 39.0792C47.673 39.4212 47.102 39.3648 46.7949 39.4505C45.7467 39.479 44.799 39.4656 43.7515 39.4411C43.7453 40.2921 43.7074 41.4014 43.7694 42.2307C43.764 43.6407 43.7658 45.0508 43.7746 46.4608C43.7778 47.1211 43.8183 48.3594 43.7272 48.9672C43.4484 49.1065 43.4605 49.0543 43.1053 49.036C43.0659 48.9922 43.0265 48.9484 42.9871 48.9046C42.9995 45.812 42.8775 39.0494 42.9709 36.418Z" fill="#212730"/>
<path d="M48.2562 37.1956C48.358 37.5201 48.2908 38.5116 48.2831 38.9058C47.8139 38.8746 47.56 38.8444 47.0882 38.9224C45.9572 38.9284 44.7606 38.9039 43.6389 38.9986C43.5871 38.4963 43.5787 37.7818 43.5577 37.2618C44.5135 37.1174 47.1553 37.1872 48.2562 37.1956Z" fill="#FF5724"/>
<path d="M46.7949 39.4509C47.2322 39.4483 47.8297 39.4606 48.2531 39.436C48.2379 39.9139 48.233 40.4509 48.2045 40.923L46.2827 40.8973C45.9408 40.8946 45.4711 40.8411 45.2076 41.027C45.0298 41.2439 45.0265 41.4305 44.9871 41.7046C44.9656 41.4064 44.9001 40.9928 45.015 40.7377C45.5896 40.3759 46.761 41.1198 46.7966 39.7903C46.5842 39.5695 44.4344 39.666 43.9997 39.7018C43.8822 40.7141 44.0115 41.1742 43.7694 42.2311C43.7074 41.4018 43.7453 40.2925 43.7515 39.4415C44.799 39.466 45.7467 39.4795 46.7949 39.4509Z" fill="white"/>
<path d="M48.2466 36.4432L48.3337 36.3848C49.0611 37.1982 48.8008 37.5215 48.847 38.5542C48.8665 38.9892 48.919 39.4797 48.8204 39.9012L48.6373 39.5857L48.5012 39.5847C47.9091 40.6106 49.464 41.1999 46.7681 41.0485C46.5575 41.0367 46.034 41.0912 45.862 41.0114L46.2827 40.8972L48.2045 40.9228C48.233 40.4508 48.2379 39.9137 48.2531 39.4359C47.8298 39.4605 47.2323 39.4481 46.7949 39.4507C47.1021 39.365 47.6731 39.4215 47.8185 39.0795C47.6019 38.9091 47.3763 38.9363 47.0882 38.9225C47.56 38.8446 47.814 38.8748 48.2831 38.906C48.2908 38.5117 48.358 37.5202 48.2562 37.1957C48.2411 36.3442 46.3314 36.7277 45.5043 36.4669C46.191 36.3981 47.9099 36.5996 48.2466 36.4432Z" fill="#212730"/>
<path d="M48.098 29.3098C48.7591 29.2742 49.5631 29.2923 50.2356 29.2904C51.5058 29.2786 65.5149 29.1785 65.9991 29.3547C65.7862 29.6785 65.5793 29.5654 65.4099 29.7549C65.3388 30.4328 65.2582 31.1096 65.1683 31.7852L65.1024 32.3438L65.0421 32.3408L54.1222 32.3443C52.7233 32.3477 50.917 32.4024 49.5611 32.3049C48.9055 31.7833 48.9594 32.1523 48.3993 31.8337C48.2102 31.5911 48.2542 31.1148 48.2507 30.7846C48.2059 31.117 48.1546 31.4484 48.0968 31.7788C48.0728 30.9356 48.0828 30.1508 48.098 29.3098Z" fill="#FF5724"/>
<path d="M50.2357 29.2904C51.5059 29.2786 65.515 29.1785 65.9992 29.3547C65.7863 29.6785 65.5794 29.5654 65.41 29.7549C63.9419 29.9204 61.576 29.869 60.0378 29.8715L51.244 29.894C50.5629 29.8264 48.7396 30.0995 48.459 29.404C49.0276 29.3957 49.6877 29.4193 50.2357 29.2904Z" fill="#212730"/>
<path d="M48.098 29.31C48.7591 29.2744 49.5631 29.2924 50.2356 29.2905C49.6876 29.4194 49.0275 29.3958 48.4589 29.4041C48.7395 30.0997 50.5628 29.8265 51.2439 29.8942C50.5649 29.9539 49.5069 30.0084 48.8084 29.9897C49.0633 30.5242 49.3213 31.0571 49.5822 31.5887C50.8596 31.7489 51.7616 31.7546 53.0513 31.744C53.5449 31.7834 56.3612 31.8872 56.5914 31.9513L56.4954 32.0028L56.5661 31.9382L56.4556 31.9219L56.5688 31.985C55.7666 32.187 54.5849 32.1212 54.1222 32.3444C52.7233 32.3478 50.917 32.4026 49.5611 32.305C48.9055 31.7835 48.9594 32.1524 48.3993 31.8338C48.2102 31.5913 48.2542 31.1149 48.2507 30.7847C48.2059 31.1171 48.1546 31.4485 48.0968 31.7789C48.0728 30.9357 48.0828 30.1509 48.098 29.31Z" fill="#FF5724"/>
<path d="M53.0513 31.7439C55.7165 31.5559 58.8407 31.6871 61.5321 31.7012C62.8071 31.7078 63.8489 31.8436 65.1683 31.7852L65.1024 32.3438L65.0421 32.3408L54.1222 32.3443C54.5849 32.1211 55.7666 32.1869 56.5688 31.9849L56.4556 31.9218L56.5661 31.938L56.4954 32.0026L56.5914 31.9512C56.3612 31.8871 53.545 31.7833 53.0513 31.7439Z" fill="#212730"/>
<path d="M65.0422 32.3408L65.1025 32.3438L65.1856 32.6393C65.7114 32.9099 65.7685 32.3479 66.0324 32.9902C66.2475 40.0296 66.3156 47.0726 66.2369 54.1148C66.1796 58.6434 66.1772 63.1725 66.2299 67.7011C65.7602 67.8091 65.3522 67.9173 64.8876 67.7327C64.7887 61.6821 64.8942 55.4122 64.8692 49.3455C64.8466 43.8394 64.7733 37.8159 65.0422 32.3408Z" fill="#212730"/>
<path d="M48.2626 55.6265L49.4473 55.7173C49.5511 59.3202 49.4543 62.9404 49.4819 66.5448C49.4833 66.7209 49.4924 66.9259 49.4821 67.098L49.5208 67.8464C49.2053 68.4102 49.098 68.4371 48.4653 68.6307L46.0655 68.6486L45.9351 68.639C46.2213 68.4284 46.1476 68.5331 46.2788 68.2437C46.2208 67.9266 46.2098 67.8572 46.2689 67.538L46.2826 67.4665C46.3374 67.148 46.3418 66.0956 46.351 65.7182C46.2741 65.4327 46.1081 64.9636 45.9525 64.7142C46.6317 64.7113 47.2439 64.7183 47.9222 64.75L48.3794 64.7105C48.085 63.9858 48.4362 63.3905 48.1984 62.9238C47.9013 62.6624 47.8975 62.7387 47.429 62.6776C47.8081 62.6463 48.0572 62.6797 48.3291 62.4606C48.3804 62.2187 48.3422 62.1658 48.2417 61.9352L48.2455 59.9464C47.7445 60.0046 47.0425 60.1252 46.7278 59.6127C46.856 58.9633 47.746 59.1272 48.2596 59.1472C48.254 57.9737 48.2549 56.8 48.2626 55.6265Z" fill="#212730"/>
<path d="M45.9525 64.7141C46.6317 64.7112 47.2439 64.7183 47.9222 64.75L48.3794 64.7104L48.5205 64.8354C48.4958 65.2999 48.3765 67.5826 48.4918 67.8864C48.779 67.8975 49.0647 67.9504 49.2903 67.804C49.4078 67.5126 49.4249 67.4028 49.4821 67.0979L49.5208 67.8464C49.2053 68.4101 49.098 68.4371 48.4653 68.6306L46.0655 68.6486L45.9351 68.639C46.2213 68.4283 46.1476 68.5331 46.2788 68.2437C46.2208 67.9265 46.2098 67.8572 46.2689 67.538L46.2826 67.4664C46.3374 67.148 46.3418 66.0955 46.351 65.7182C46.2741 65.4326 46.1081 64.9636 45.9525 64.7141Z" fill="#FF5724"/>
<path d="M45.9525 64.7141C46.6317 64.7112 47.2439 64.7183 47.9222 64.75L48.3794 64.7104L48.5205 64.8354C48.4958 65.2999 48.3765 67.5826 48.4918 67.8864C48.779 67.8975 49.0647 67.9504 49.2903 67.804C49.4078 67.5126 49.4249 67.4028 49.4821 67.0979L49.5208 67.8464C49.2053 68.4101 49.098 68.4371 48.4653 68.6306L46.0655 68.6486L45.9351 68.639C46.2213 68.4283 46.1476 68.5331 46.2788 68.2437C46.2208 67.9265 46.2098 67.8572 46.2689 67.538L46.2826 67.4664C46.3469 67.8145 46.339 68.0412 46.7807 68.0388C47.2648 68.0362 47.7906 67.9817 48.2805 67.9671C48.3503 67.0572 48.3254 66.3096 48.2978 65.4048C47.7107 65.396 46.9735 65.4065 46.4091 65.3099L46.351 65.7182C46.2741 65.4326 46.1081 64.9636 45.9525 64.7141Z" fill="#FF5724"/>
<path d="M45.9525 64.7145C46.6317 64.7116 47.244 64.7186 47.9222 64.7503L48.1562 65.0996L48.112 65.245C47.7242 65.4308 46.8746 65.1901 46.4091 65.3103L46.3511 65.7185C46.2741 65.433 46.1082 64.9639 45.9525 64.7145Z" fill="#212730"/>
<path d="M51.8002 67.7538L59.4466 67.7162C60.4897 67.7071 62.9066 67.6263 63.8375 67.7512L64.8876 67.7326C65.3523 67.9171 65.7603 67.809 66.2299 67.7009C66.5292 67.7281 66.7986 67.7557 67.0998 67.7558L67.5447 67.7393C67.6752 67.9028 67.6405 67.8126 67.6579 68.0166L67.6564 69.0586C66.092 69.0465 64.5275 69.0251 62.9633 68.9942C62.3091 68.982 61.1526 68.9928 60.533 68.921C59.6608 69.0475 57.8964 68.9192 56.9428 68.9419C53.3345 69.0277 49.6815 68.7219 46.0881 68.7188L46.0656 68.6487L48.4653 68.6307C49.098 68.4372 49.2054 68.4102 49.5209 67.8465L50.4715 67.8681C50.7025 67.8755 51.1889 67.8554 51.3474 67.976C51.2331 68.1974 51.1186 68.2443 50.9098 68.3818C51.2243 68.3857 51.4618 68.4211 51.7243 68.2525C51.8776 67.9614 51.8541 68.0928 51.8002 67.7538Z" fill="#212730"/>
<path d="M66.2299 67.7012C66.5292 67.7283 66.7986 67.7559 67.0998 67.756L67.5447 67.7395C67.6752 67.9031 67.6405 67.8129 67.6579 68.0169L67.6564 69.0588C66.092 69.0468 64.5275 69.0253 62.9633 68.9945C62.3091 68.9823 61.1526 68.993 60.533 68.9213C61.2287 68.7974 62.2113 68.9883 62.8942 68.7887C62.9798 68.7637 63.2403 68.4552 63.5902 68.2841L63.6649 68.2481C63.3211 68.2197 63.2689 68.218 62.9683 68.047L62.9502 67.9277C63.233 67.7378 63.463 67.7803 63.8375 67.7514L64.8876 67.7328C65.3523 67.9174 65.7603 67.8092 66.2299 67.7012Z" fill="#212730"/>
<path d="M66.2299 67.7012C66.5292 67.7283 66.7986 67.7559 67.0998 67.756L67.5447 67.7395C67.6752 67.9031 67.6405 67.8129 67.6579 68.0169L67.1616 68.0868C65.4914 68.5292 65.335 68.3376 63.6649 68.2481C63.3211 68.2197 63.2689 68.218 62.9683 68.047L62.9502 67.9277C63.233 67.7378 63.463 67.7803 63.8375 67.7514L64.8876 67.7328C65.3522 67.9174 65.7602 67.8092 66.2299 67.7012Z" fill="#212730"/>
<path d="M67.0998 67.7558L67.5447 67.7393C67.6752 67.9028 67.6405 67.8126 67.6579 68.0166L67.1615 68.0865L66.7362 68.005L66.7078 67.9205L67.0998 67.7558Z" fill="#212730"/>
<path d="M49.5208 67.8467L50.4714 67.8683C50.7024 67.8757 51.1888 67.8556 51.3473 67.9762C51.233 68.1976 51.1185 68.2445 50.9097 68.382C49.8675 68.552 49.59 68.6928 48.4652 68.6309C49.0979 68.4374 49.2052 68.4104 49.5208 67.8467Z" fill="#212730"/>
<path d="M50.7007 54.2869C50.6824 53.4825 50.588 51.1208 50.7293 50.4634C50.9212 50.3035 51.2633 50.2324 51.4715 50.3777C51.6423 50.8504 51.5414 52.0665 51.5196 52.6094C51.6103 54.0504 51.5873 55.72 51.6026 57.1771L51.6916 63.3852C51.7031 64.452 51.6979 66.721 51.8002 67.754C51.854 68.093 51.8775 67.9615 51.7242 68.2526C51.4617 68.4212 51.2242 68.3858 50.9097 68.3819C51.1186 68.2444 51.233 68.1975 51.3474 67.9761C51.1888 67.8556 50.7024 67.8756 50.4714 67.8682C50.5938 67.1277 50.4969 65.1201 50.5281 64.2524C50.6383 61.1981 50.4028 57.2723 50.7007 54.2869Z" fill="#212730"/>
<path d="M50.7007 54.2869C50.6823 53.4825 50.588 51.1208 50.7293 50.4634C50.9211 50.3035 51.2633 50.2324 51.4714 50.3777C51.6423 50.8504 51.5414 52.0665 51.5196 52.6094C51.4421 53.5667 51.6132 56.6475 51.3039 57.2087L51.1668 57.2069C50.4178 56.3106 50.8483 55.4281 50.7007 54.2869Z" fill="#212730"/>
<path d="M50.7928 34.2325C51.1637 34.2057 51.3111 34.1351 51.6107 34.2787C51.738 34.8746 51.7282 36.2567 51.754 36.9148C51.8655 39.7578 51.7205 42.6008 51.694 45.4416C51.6905 45.8094 51.7173 45.9487 51.4959 46.1618C51.4515 46.1636 51.4069 46.1649 51.3624 46.166C51.031 46.1741 50.8069 46.2066 50.5824 45.9938C50.4602 45.2021 50.4933 43.437 50.4806 42.5312C50.4497 40.3198 50.4435 38.0666 50.4922 35.856C50.5022 35.4025 50.4718 34.5325 50.7928 34.2325Z" fill="#212730"/>
<path d="M32.8212 31.4146C33.8699 31.4133 34.8323 31.5293 35.8019 31.9522C36.3804 32.2046 37.655 32.9707 37.8831 33.5394C37.8393 33.821 37.8085 33.7733 37.5683 34.0171C37.2045 34.0671 37.2059 33.5304 36.6846 33.1919C35.2769 32.278 32.9977 32.0705 31.3955 32.3705C29.7048 32.8324 29.2433 33.3887 28.2705 34.7344C28.099 34.9715 27.7673 35.2898 27.4507 35.316L27.3996 35.2236C27.3892 34.7353 27.7942 33.7271 28.1405 33.3556C29.5336 31.861 30.8941 31.5271 32.8212 31.4146Z" fill="#212730"/>
<path d="M46.8995 27.6997C47.9613 27.9184 47.4123 28.648 47.385 29.5255C47.3419 30.9121 47.706 34.2064 47.367 35.4091C47.3367 35.4045 47.3066 35.3999 47.2764 35.3952C47.1646 35.3555 46.8982 35.3763 46.8633 35.2453C46.6219 34.3413 46.793 28.1295 46.8995 27.6997Z" fill="#212730"/>
<path d="M62.1121 39.5864L62.3429 39.8011C62.5516 40.381 62.6647 42.5381 62.5103 43.1299L62.3443 43.2262C62.0923 43.2008 62.0183 43.2004 61.7822 43.0927C61.543 42.6265 61.7601 40.0818 62.1121 39.5864Z" fill="#212730"/>
<path d="M65.9992 29.3545C66.1494 29.754 66.0148 32.3748 66.0324 32.99C65.7685 32.3478 65.7113 32.9098 65.1856 32.6391L65.1024 32.3437L65.1683 31.785C65.2582 31.1094 65.3388 30.4326 65.4099 29.7547C65.5793 29.5653 65.7862 29.6783 65.9992 29.3545Z" fill="#212730"/>
<path d="M55.2519 62.9155C55.5143 62.9215 55.5779 62.9163 55.829 63.0141C55.928 63.2695 55.9307 66.0276 55.805 66.2366C55.5997 66.2142 55.4496 66.1864 55.2472 66.1452C55.0003 65.8481 55.0075 63.2098 55.2519 62.9155Z" fill="#212730"/>
<path d="M62.0147 62.7852C62.3213 62.8435 62.2278 62.7875 62.4315 62.9682C62.6629 63.7014 62.5641 65.5029 62.4377 66.2876C62.1975 66.2729 62.1149 66.2589 61.881 66.2016C61.6228 65.8171 61.7097 63.2175 62.0147 62.7852Z" fill="#212730"/>
<path d="M61.8426 45.6769C62.2023 45.6794 62.1589 45.6231 62.4031 45.8018C62.705 46.5271 62.5227 48.1548 62.4961 49.0408C61.7435 49.0515 61.7397 48.9418 61.7495 48.1772C61.7599 47.3552 61.7337 46.4913 61.8426 45.6769Z" fill="#212730"/>
<path d="M47.429 62.6775C46.9065 62.6823 45.1373 62.7979 44.9742 62.2647C45.4707 61.692 47.5168 61.8931 48.2417 61.9351C48.3422 62.1657 48.3804 62.2186 48.3291 62.4605C48.0572 62.6796 47.8081 62.6462 47.429 62.6775Z" fill="#212730"/>
<path d="M62.0138 57.1714C62.2947 57.2169 62.2245 57.1658 62.4129 57.3317C62.6176 57.9047 62.7453 60.0868 62.3497 60.4894C62.0094 60.4117 61.8374 60.3911 61.7696 59.9856C61.6534 59.2898 61.6588 57.7598 62.0138 57.1714Z" fill="#212730"/>
<path d="M62.039 51.1782C62.3011 51.3574 62.3416 51.3518 62.426 51.7144C62.5586 52.2834 62.6932 54.2681 62.4624 54.6593C62.3338 54.6481 61.9192 54.6058 61.8857 54.5486C61.5376 53.9555 61.8282 51.6427 62.039 51.1782Z" fill="#212730"/>
<path d="M55.0941 45.7947C55.4063 45.7819 55.4946 45.7691 55.8008 45.8489C55.8624 45.956 55.9046 48.5857 55.9243 48.951C55.653 48.9194 55.3451 48.9215 55.1431 48.7634C55.0429 48.1178 55.091 46.5142 55.0941 45.7947Z" fill="#212730"/>
<path d="M58.9136 39.6709L59.1549 39.7973C59.3766 40.2888 59.4086 42.785 59.0609 43.2583L58.7024 43.1741C58.3083 42.684 58.4636 40.1736 58.9136 39.6709Z" fill="#212730"/>
<path d="M55.1458 39.8594C55.4158 39.8639 55.4683 39.8649 55.7254 39.9437C55.8147 40.0791 55.9388 42.8369 55.9395 43.1163L55.0541 43.0156C55.1145 42.0353 55.1093 40.8659 55.1458 39.8594Z" fill="#212730"/>
<path d="M58.7059 62.8047C59.0579 62.899 59.0814 62.8424 59.2736 63.0732C59.3187 63.7042 59.2912 65.6973 59.1811 66.2983C59.0179 66.2635 58.6275 66.1948 58.6035 66.0108C58.5091 65.2885 58.4295 63.4252 58.7059 62.8047Z" fill="#212730"/>
<path d="M62.0696 33.9766C62.1598 34.0297 62.2429 34.1159 62.3225 34.1883C62.5413 34.7526 62.7145 37.1246 62.3405 37.5237L61.9988 37.4557C61.4799 37.0224 61.7868 34.5659 62.0696 33.9766Z" fill="#212730"/>
<path d="M58.6775 45.6499C58.8859 45.6532 58.9499 45.6651 59.1557 45.7048C59.4021 46.0094 59.2366 48.4933 59.1877 49.0238C58.8413 49.0081 58.8597 49.0657 58.6412 48.8834C58.3588 48.1137 58.5242 46.466 58.6775 45.6499Z" fill="#212730"/>
<path d="M55.2168 51.3813C55.4334 51.3973 55.5532 51.4231 55.7658 51.4697C55.8512 51.6553 55.8962 54.3043 55.8742 54.5895C55.5829 54.579 55.4999 54.5738 55.2094 54.5066C54.9472 54.1489 55.1419 51.8959 55.2168 51.3813Z" fill="#212730"/>
<path d="M55.2152 57.3328C55.4698 57.3227 55.5428 57.3293 55.7945 57.371L55.8803 57.5169C55.8857 57.9433 55.9633 60.0417 55.7896 60.3147C55.5282 60.2763 55.2969 60.2736 55.0939 60.1185C55.0586 59.6525 55.0446 57.6818 55.2152 57.3328Z" fill="#212730"/>
<path d="M55.2401 34.1177C55.4354 34.1562 55.4655 34.1758 55.6466 34.264C55.8921 34.6551 55.9069 36.7656 55.9475 37.3494C55.6131 37.3237 55.3268 37.3595 55.1041 37.1762C55.05 36.5092 55.1 34.7562 55.2401 34.1177Z" fill="#212730"/>
<path d="M58.7708 57.1606C58.9742 57.1941 59 57.1998 59.1632 57.3246C59.3846 57.8432 59.3711 59.8111 59.1981 60.3559C59.0638 60.3566 58.5774 60.3649 58.5585 60.1908C58.4759 59.4313 58.4542 57.8241 58.7708 57.1606Z" fill="#212730"/>
<path d="M58.7756 51.2646C58.9696 51.2827 58.9816 51.2782 59.1326 51.3914C59.324 51.8374 59.379 54.3275 59.0782 54.6877C58.7505 54.6115 58.8079 54.6743 58.6035 54.4591C58.4214 53.6999 58.4941 51.9836 58.7756 51.2646Z" fill="#212730"/>
<path d="M58.8591 33.9683C58.9265 34.0058 59.033 34.0929 59.0986 34.1427C59.3569 34.8393 59.4677 36.9976 58.928 37.546C58.7514 37.4778 58.7459 37.4721 58.6063 37.3411C58.4176 36.6485 58.5186 34.6005 58.8591 33.9683Z" fill="#212730"/>
</g>
<defs>
<clipPath id="clip0_173_2575">
<rect width="90" height="90" fill="white"/>
</clipPath>
</defs>
</svg>
