<svg width="28" height="28" viewBox="0 0 28 28" fill="none" xmlns="http://www.w3.org/2000/svg">
<mask id="mask0_173_2381" style="mask-type:alpha" maskUnits="userSpaceOnUse" x="0" y="0" width="28" height="28">
<rect width="28" height="28" fill="#D9D9D9"/>
</mask>
<g mask="url(#mask0_173_2381)">
<path d="M5.83333 23.3335C5.19167 23.3335 4.64236 23.105 4.18542 22.6481C3.72847 22.1911 3.5 21.6418 3.5 21.0002V12.8335C3.5 11.3946 3.77708 10.0384 4.33125 8.76475C4.88542 7.49114 5.63889 6.37794 6.59167 5.42516C7.54444 4.47238 8.65764 3.71891 9.93125 3.16475C11.2049 2.61058 12.5611 2.3335 14 2.3335C15.4389 2.3335 16.7951 2.61058 18.0687 3.16475C19.3424 3.71891 20.4556 4.47238 21.4083 5.42516C22.3611 6.37794 23.1146 7.49114 23.6687 8.76475C24.2229 10.0384 24.5 11.3946 24.5 12.8335V24.5002C24.5 25.1418 24.2715 25.6911 23.8146 26.1481C23.3576 26.605 22.8083 26.8335 22.1667 26.8335H15.1667C14.8361 26.8335 14.559 26.7217 14.3354 26.4981C14.1118 26.2745 14 25.9974 14 25.6668C14 25.3363 14.1118 25.0592 14.3354 24.8356C14.559 24.612 14.8361 24.5002 15.1667 24.5002H22.1667V23.3335H19.8333C19.1917 23.3335 18.6424 23.105 18.1854 22.6481C17.7285 22.1911 17.5 21.6418 17.5 21.0002V16.3335C17.5 15.6918 17.7285 15.1425 18.1854 14.6856C18.6424 14.2286 19.1917 14.0002 19.8333 14.0002H22.1667V12.8335C22.1667 10.5779 21.3694 8.65294 19.775 7.0585C18.1806 5.46405 16.2556 4.66683 14 4.66683C11.7444 4.66683 9.81944 5.46405 8.225 7.0585C6.63056 8.65294 5.83333 10.5779 5.83333 12.8335V14.0002H8.16667C8.80833 14.0002 9.35764 14.2286 9.81458 14.6856C10.2715 15.1425 10.5 15.6918 10.5 16.3335V21.0002C10.5 21.6418 10.2715 22.1911 9.81458 22.6481C9.35764 23.105 8.80833 23.3335 8.16667 23.3335H5.83333ZM5.83333 21.0002H8.16667V16.3335H5.83333V21.0002ZM19.8333 21.0002H22.1667V16.3335H19.8333V21.0002Z" fill="#FF5724"/>
</g>
</svg>
