<svg width="20" height="20" viewBox="0 0 20 20" fill="none" xmlns="http://www.w3.org/2000/svg">
<mask id="mask0_283_2849" style="mask-type:alpha" maskUnits="userSpaceOnUse" x="0" y="0" width="20" height="20">
<rect width="20" height="20" fill="#D9D9D9"/>
</mask>
<g mask="url(#mask0_283_2849)">
<path d="M10.3958 14.0207L17.3749 7.0415L16.2916 5.95817L9.31242 12.9373L10.3958 14.0207ZM2.49992 12.729C2.49992 13.1318 2.63881 13.4443 2.91659 13.6665C3.19436 13.8887 3.6527 14.0346 4.29159 14.104C4.51381 14.1318 4.69089 14.2325 4.82284 14.4061C4.95478 14.5797 5.01381 14.7776 4.99992 14.9998C4.98603 15.2359 4.9027 15.4304 4.74992 15.5832C4.59714 15.7359 4.40964 15.7984 4.18742 15.7707C3.06242 15.6318 2.22214 15.3089 1.66659 14.8019C1.11103 14.295 0.833252 13.604 0.833252 12.729C0.833252 11.8262 1.20478 11.0936 1.94784 10.5311C2.69089 9.96859 3.72214 9.63178 5.04159 9.52067C5.58325 9.479 5.9895 9.3922 6.26034 9.26025C6.53117 9.12831 6.66659 8.94428 6.66659 8.70817C6.66659 8.40262 6.52075 8.16303 6.22909 7.98942C5.93742 7.81581 5.45825 7.68039 4.79159 7.58317C4.56936 7.55539 4.39228 7.45123 4.26034 7.27067C4.12839 7.09012 4.07631 6.88873 4.10409 6.6665C4.13186 6.43039 4.22909 6.23942 4.39575 6.09359C4.56242 5.94775 4.75686 5.88873 4.97909 5.9165C6.13186 6.08317 6.97909 6.3922 7.52075 6.84359C8.06242 7.29498 8.33325 7.9165 8.33325 8.70817C8.33325 9.44428 8.06589 10.0207 7.53117 10.4373C6.99645 10.854 6.20825 11.104 5.16659 11.1873C4.2777 11.2568 3.61103 11.42 3.16659 11.6769C2.72214 11.9339 2.49992 12.2846 2.49992 12.729ZM10.7916 15.979L7.35409 12.5415L15.3124 4.58317C15.5902 4.30539 15.9201 4.1665 16.302 4.1665C16.6839 4.1665 17.0138 4.30539 17.2916 4.58317L18.7499 6.0415C19.0277 6.31928 19.1666 6.64914 19.1666 7.03109C19.1666 7.41303 19.0277 7.74289 18.7499 8.02067L10.7916 15.979ZM7.47909 16.6665C7.24297 16.7221 7.03464 16.6596 6.85409 16.479C6.67353 16.2984 6.61103 16.0901 6.66659 15.854L7.35409 12.5415L10.7916 15.979L7.47909 16.6665Z" fill="#FF5724"/>
</g>
</svg>
