<svg width="58" height="52" viewBox="0 0 58 52" fill="none" xmlns="http://www.w3.org/2000/svg">
<g opacity="0.1" clip-path="url(#clip0_173_2454)">
<path d="M50 27C50 13.1929 38.8071 2 25 2C11.1929 2 0 13.1929 0 27C0 40.8071 11.1929 52 25 52C38.8071 52 50 40.8071 50 27Z" fill="white"/>
<path d="M16.0452 32.1169V37.2337H22.4415V42.3506H27.5584V37.2337H30.1169C31.8133 37.2337 33.4403 36.5599 34.6396 35.3604C35.8391 34.1607 36.5131 32.5339 36.5131 30.8375C36.5131 29.1411 35.8391 27.5144 34.6396 26.3147C33.4403 25.1152 31.8133 24.4412 30.1169 24.4412H19.883C19.5438 24.4412 19.2184 24.3066 18.9784 24.0667C18.7385 23.8267 18.6038 23.5014 18.6038 23.1621C18.6038 22.8229 18.7385 22.4975 18.9784 22.2575C19.2184 22.0176 19.5438 21.8829 19.883 21.8829H33.9546V16.7659H27.5584V11.6489H22.4415V16.7659H19.883C18.1866 16.7659 16.5596 17.4397 15.3603 18.6394C14.1608 19.8387 13.4868 21.4657 13.4868 23.1621C13.4868 24.8585 14.1608 26.4854 15.3603 27.6849C16.5596 28.8845 18.1866 29.5582 19.883 29.5582H30.1169C30.4561 29.5582 30.7815 29.693 31.0215 29.933C31.2614 30.1729 31.3961 30.4982 31.3961 30.8375C31.3961 31.1769 31.2614 31.5022 31.0215 31.7421C30.7815 31.982 30.4561 32.1169 30.1169 32.1169H16.0452Z" fill="white"/>
</g>
<g clip-path="url(#clip1_173_2454)">
<path d="M58 25C58 11.1929 46.8071 0 33 0C19.1929 0 8 11.1929 8 25C8 38.8071 19.1929 50 33 50C46.8071 50 58 38.8071 58 25Z" fill="#3A3A3A"/>
<path d="M24.0452 30.1169V35.2337H30.4415V40.3506H35.5584V35.2337H38.1169C39.8133 35.2337 41.4403 34.5599 42.6396 33.3604C43.8391 32.1607 44.5131 30.5339 44.5131 28.8375C44.5131 27.1411 43.8391 25.5144 42.6396 24.3147C41.4403 23.1152 39.8133 22.4412 38.1169 22.4412H27.883C27.5438 22.4412 27.2184 22.3066 26.9784 22.0667C26.7385 21.8267 26.6038 21.5014 26.6038 21.1621C26.6038 20.8229 26.7385 20.4975 26.9784 20.2575C27.2184 20.0176 27.5438 19.8829 27.883 19.8829H41.9546V14.7659H35.5584V9.64893H30.4415V14.7659H27.883C26.1866 14.7659 24.5596 15.4397 23.3603 16.6394C22.1608 17.8387 21.4868 19.4657 21.4868 21.1621C21.4868 22.8585 22.1608 24.4854 23.3603 25.6849C24.5596 26.8845 26.1866 27.5582 27.883 27.5582H38.1169C38.4561 27.5582 38.7815 27.693 39.0215 27.933C39.2614 28.1729 39.3961 28.4982 39.3961 28.8375C39.3961 29.1769 39.2614 29.5022 39.0215 29.7421C38.7815 29.982 38.4561 30.1169 38.1169 30.1169H24.0452Z" fill="white"/>
</g>
<defs>
<clipPath id="clip0_173_2454">
<rect width="50" height="50" fill="white" transform="translate(0 2)"/>
</clipPath>
<clipPath id="clip1_173_2454">
<rect width="50" height="50" fill="white" transform="translate(8)"/>
</clipPath>
</defs>
</svg>
