<svg width="20" height="20" viewBox="0 0 20 20" fill="none" xmlns="http://www.w3.org/2000/svg">
<mask id="mask0_283_2856" style="mask-type:alpha" maskUnits="userSpaceOnUse" x="0" y="0" width="20" height="20">
<rect width="20" height="20" fill="#D9D9D9"/>
</mask>
<g mask="url(#mask0_283_2856)">
<path d="M9.12508 10.5833L7.91675 9.39581C7.76397 9.24303 7.573 9.16664 7.34383 9.16664C7.11467 9.16664 6.91675 9.24998 6.75008 9.41664C6.5973 9.56942 6.52092 9.76387 6.52092 9.99998C6.52092 10.2361 6.5973 10.4305 6.75008 10.5833L8.54175 12.375C8.70842 12.5416 8.90286 12.625 9.12508 12.625C9.3473 12.625 9.54175 12.5416 9.70842 12.375L13.2501 8.83331C13.4167 8.66664 13.4966 8.4722 13.4897 8.24998C13.4827 8.02775 13.4029 7.83331 13.2501 7.66664C13.0834 7.49998 12.8855 7.41317 12.6563 7.40623C12.4272 7.39928 12.2292 7.47914 12.0626 7.64581L9.12508 10.5833ZM6.79175 18.125L5.58342 16.0833L3.29175 15.5833C3.08341 15.5416 2.91675 15.434 2.79175 15.2604C2.66675 15.0868 2.61814 14.8958 2.64591 14.6875L2.87508 12.3333L1.31258 10.5416C1.17369 10.3889 1.10425 10.2083 1.10425 9.99998C1.10425 9.79164 1.17369 9.61109 1.31258 9.45831L2.87508 7.66664L2.64591 5.31248C2.61814 5.10414 2.66675 4.91317 2.79175 4.73956C2.91675 4.56595 3.08341 4.45831 3.29175 4.41664L5.58342 3.91664L6.79175 1.87498C6.90286 1.69442 7.05564 1.57289 7.25008 1.51039C7.44453 1.44789 7.63897 1.45831 7.83342 1.54164L10.0001 2.45831L12.1667 1.54164C12.3612 1.45831 12.5556 1.44789 12.7501 1.51039C12.9445 1.57289 13.0973 1.69442 13.2084 1.87498L14.4167 3.91664L16.7084 4.41664C16.9167 4.45831 17.0834 4.56595 17.2084 4.73956C17.3334 4.91317 17.382 5.10414 17.3542 5.31248L17.1251 7.66664L18.6876 9.45831C18.8265 9.61109 18.8959 9.79164 18.8959 9.99998C18.8959 10.2083 18.8265 10.3889 18.6876 10.5416L17.1251 12.3333L17.3542 14.6875C17.382 14.8958 17.3334 15.0868 17.2084 15.2604C17.0834 15.434 16.9167 15.5416 16.7084 15.5833L14.4167 16.0833L13.2084 18.125C13.0973 18.3055 12.9445 18.4271 12.7501 18.4896C12.5556 18.5521 12.3612 18.5416 12.1667 18.4583L10.0001 17.5416L7.83342 18.4583C7.63897 18.5416 7.44453 18.5521 7.25008 18.4896C7.05564 18.4271 6.90286 18.3055 6.79175 18.125ZM7.87508 16.625L10.0001 15.7083L12.1667 16.625L13.3334 14.625L15.6251 14.0833L15.4167 11.75L16.9584 9.99998L15.4167 8.20831L15.6251 5.87498L13.3334 5.37498L12.1251 3.37498L10.0001 4.29164L7.83342 3.37498L6.66675 5.37498L4.37508 5.87498L4.58342 8.20831L3.04175 9.99998L4.58342 11.75L4.37508 14.125L6.66675 14.625L7.87508 16.625Z" fill="#4F627A"/>
</g>
</svg>
